<svg width="403" height="406" viewBox="0 0 403 406" fill="none" xmlns="http://www.w3.org/2000/svg">
<g clip-path="url(#clip0)">
<path d="M6.07785 123.188C2.9335 114.549 7.38782 104.996 16.0269 101.852L278.036 6.48836C286.675 3.34401 296.228 7.79832 299.372 16.4374L396.444 283.14C399.588 291.779 395.134 301.331 386.495 304.475L124.485 399.839C115.846 402.983 106.294 398.529 103.15 389.89L6.07785 123.188Z" fill="#111111"/>
<path d="M32.7231 139.939C33.5571 139.636 33.9574 138.739 33.6694 137.948C33.3736 137.135 32.4946 136.717 31.6606 137.02C30.8265 137.324 30.4117 138.213 30.7075 139.026C30.9955 139.817 31.889 140.243 32.7231 139.939ZM36.1035 153.386L38.7661 152.417L34.6406 141.082L31.978 142.051L36.1035 153.386ZM48.1984 149.286C52.7108 147.644 54.3954 143.555 52.609 138.647L52.6012 138.626C50.8187 133.728 46.8895 131.683 42.3877 133.322C37.8966 134.956 36.18 139.056 37.9625 143.954L37.9703 143.975C39.7567 148.883 43.6859 150.929 48.1984 149.286ZM47.3266 146.891C44.5678 147.895 42.0318 146.384 40.7825 142.952L40.7747 142.93C39.5254 139.498 40.5114 136.717 43.2595 135.717C46.0183 134.713 48.5542 136.224 49.7997 139.646L49.8074 139.667C51.0451 143.067 50.1175 145.875 47.3266 146.891ZM63.1365 143.849C66.9005 142.479 68.5019 139.826 67.4549 136.949L67.451 136.939C66.5754 134.533 64.6997 133.738 61.2505 134.243L59.4579 134.508C57.4572 134.8 56.3789 134.466 55.9819 133.375L55.9781 133.364C55.5305 132.135 56.3458 130.881 58.149 130.213C59.8813 129.582 61.3601 129.952 62.0323 131.233L62.1004 131.354L64.7415 130.393L64.6647 130.215C63.543 127.632 60.6942 126.659 57.3259 127.885C54.0003 129.095 52.2852 131.802 53.2631 134.522L53.2669 134.533C54.1037 136.832 56.1145 137.698 59.3809 137.224L61.1629 136.963C63.3036 136.656 64.3313 136.984 64.7516 138.139L64.7555 138.15C65.2381 139.476 64.3343 140.786 62.3882 141.494C60.4528 142.198 58.7951 141.869 58.1093 140.617L58.0412 140.497L55.4 141.458L55.4691 141.614C56.6589 144.318 59.5971 145.137 63.1365 143.849ZM75.518 139.04L78.0095 138.133L74.0163 127.162L74.0912 127.135L82.5326 136.487L84.4039 135.806L84.859 123.216L84.9446 123.185L88.9377 134.156L91.4185 133.253L85.8024 117.823L82.6159 118.982L82.1785 132.486L82.1037 132.514L73.0884 122.45L69.9019 123.61L75.518 139.04ZM98.9426 130.768C101.905 129.69 102.934 127.33 102.653 125.458L102.642 125.329L100.151 126.236L100.157 126.318C100.176 127.171 99.5669 128.192 98.241 128.675C96.5087 129.305 94.9899 128.526 94.2233 126.552L102.157 123.665L101.846 122.809C100.601 119.387 97.7614 117.842 94.5215 119.021C91.2815 120.2 90.0526 123.311 91.3525 126.883L91.3564 126.894C92.6679 130.497 95.5422 132.006 98.9426 130.768ZM95.3125 121.094C96.7239 120.581 98.0774 121.105 98.9237 122.831L93.6093 124.766C93.1888 122.945 93.901 121.608 95.3125 121.094ZM110.769 126.464C113.731 125.386 114.761 123.025 114.479 121.154L114.469 121.024L111.977 121.931L111.983 122.014C112.003 122.866 111.393 123.887 110.067 124.37C108.335 125.001 106.816 124.221 106.05 122.248L113.984 119.36L113.673 118.505C112.427 115.083 109.588 113.537 106.348 114.716C103.108 115.896 101.879 119.007 103.179 122.578L103.183 122.589C104.494 126.193 107.369 127.702 110.769 126.464ZM107.139 116.79C108.55 116.276 109.904 116.801 110.75 118.527L105.436 120.461C105.015 118.64 105.727 117.303 107.139 116.79ZM121.826 122.44C122.36 122.245 122.811 122.02 123.106 121.865L122.378 119.865C122.2 119.942 122.009 120.048 121.752 120.141C120.779 120.496 120.159 120.322 119.754 119.21L117.574 113.222L119.681 112.455L118.934 110.402L116.827 111.169L115.78 108.292L113.075 109.277L114.122 112.153L112.518 112.737L113.265 114.79L114.869 114.206L117.13 120.419C117.979 122.75 119.452 123.304 121.826 122.44ZM121.582 107.597C122.416 107.294 122.816 106.397 122.528 105.606C122.233 104.793 121.354 104.374 120.52 104.678C119.686 104.982 119.271 105.871 119.566 106.684C119.854 107.475 120.748 107.901 121.582 107.597ZM124.963 121.044L127.625 120.075L123.5 108.74L120.837 109.709L124.963 121.044ZM129.892 119.25L132.555 118.28L130.161 111.704C129.566 110.068 130.134 108.602 131.663 108.045C133.181 107.493 134.261 108.129 134.848 109.744L137.324 116.545L139.986 115.576L137.316 108.24C136.359 105.61 134.353 104.523 131.861 105.43C130.14 106.057 129.273 107.268 129.129 108.701L129.075 108.721L128.429 106.946L125.767 107.915L129.892 119.25ZM148.68 116.904C151.963 115.709 153.4 113.236 152.466 110.67L148.457 99.6562L145.795 100.625L146.495 102.55L146.431 102.573C145.315 101.502 143.763 101.098 142.159 101.682C139.293 102.725 138.245 105.601 139.549 109.183L139.553 109.194C140.837 112.723 143.459 114.239 146.304 113.203C147.929 112.612 148.932 111.375 149.123 109.937L149.177 109.918L149.772 111.554C150.298 112.997 149.681 114.263 147.948 114.894C146.558 115.4 145.47 115.238 144.944 114.691L144.881 114.617L142.261 115.571L142.318 115.659C143.284 117.318 145.675 117.998 148.68 116.904ZM146.391 110.847C144.68 111.47 143.098 110.483 142.284 108.248L142.28 108.238C141.479 106.035 142.057 104.262 143.767 103.64C145.414 103.04 147.047 104.032 147.845 106.225L147.849 106.235C148.65 108.438 148.048 110.244 146.391 110.847Z" fill="white"/>
<path d="M48.4147 173.163L49.3221 172.833L45.7117 162.914L44.7906 163.249L42.7846 166.058L43.1324 167.013L45.1422 164.258L45.1697 164.248L48.4147 173.163ZM55.2432 170.857C57.4842 170.041 58.1159 167.585 56.9725 164.444L56.965 164.423C55.8241 161.288 53.7588 159.806 51.5178 160.622C49.2768 161.437 48.652 163.891 49.7954 167.033L49.8029 167.053C50.9438 170.188 53.0023 171.673 55.2432 170.857ZM54.943 170.032C53.2795 170.638 51.7029 169.343 50.7446 166.71L50.7371 166.69C49.7789 164.057 50.157 162.059 51.8205 161.453C53.4841 160.848 55.0625 162.126 56.0233 164.766L56.0308 164.786C56.9865 167.412 56.6065 169.427 54.943 170.032ZM62.4378 168.059L63.4346 167.697L63.4354 164.255L67.6355 162.727L69.8481 165.362L70.838 165.002L63.495 156.441L62.567 156.779L62.4378 168.059ZM63.4385 157.762L63.4591 157.754L67.0447 162.023L63.4358 163.337L63.4385 157.762ZM74.0588 163.97C75.2137 163.55 75.8034 162.689 75.8875 161.786L75.9081 161.779L76.351 162.995L77.2652 162.663L74.6632 155.514L73.7489 155.846L75.2902 160.081C75.7755 161.414 75.2759 162.608 74.0248 163.064C72.815 163.504 71.8974 163.036 71.4145 161.709L69.8032 157.283L68.889 157.615L70.5553 162.193C71.1658 163.871 72.4778 164.545 74.0588 163.97ZM82.7254 163.548C84.6157 162.86 85.4078 161.357 84.8073 159.707L82.2728 152.744L81.3586 153.077L81.909 154.589L81.8884 154.597C81.1513 153.791 80.0118 153.419 78.8707 153.834C77.0697 154.49 76.3559 156.4 77.1616 158.613L77.1641 158.62C77.9747 160.848 79.7356 161.857 81.5366 161.201C82.6845 160.784 83.3492 159.787 83.387 158.714L83.4077 158.707L83.8655 159.965C84.3084 161.181 83.7912 162.241 82.4233 162.739C81.3303 163.137 80.4465 162.976 79.9957 162.486L79.9457 162.434L79.0315 162.767L79.0652 162.817C79.6874 163.735 81.0275 164.166 82.7254 163.548ZM81.4201 160.325C80.0384 160.828 78.7344 160.026 78.0989 158.28L78.0964 158.273C77.4684 156.548 77.9492 155.088 79.3309 154.585C80.6714 154.098 82.0241 154.905 82.6471 156.617L82.6496 156.624C83.2751 158.342 82.7674 159.835 81.4201 160.325ZM88.9619 158.546C90.1167 158.125 90.7064 157.264 90.7905 156.362L90.8112 156.354L91.254 157.571L92.1683 157.238L89.5662 150.089L88.652 150.422L90.1932 154.657C90.6786 155.99 90.1789 157.184 88.9278 157.639C87.718 158.08 86.8004 157.612 86.3175 156.285L84.7062 151.858L83.792 152.191L85.4583 156.769C86.0688 158.446 87.3808 159.121 88.9619 158.546ZM96.2371 155.905C97.8044 155.335 98.6259 154.063 98.1831 152.846L98.1806 152.839C97.8153 151.836 97.0696 151.477 95.5215 151.651L94.3497 151.789C93.3254 151.905 92.8079 151.681 92.6002 151.11L92.5977 151.103C92.3325 150.375 92.796 149.638 93.7653 149.285C94.762 148.922 95.5921 149.235 96.0117 150.024L96.036 150.07L96.9091 149.752L96.8747 149.679C96.31 148.491 95.0111 147.96 93.485 148.515C91.9934 149.058 91.2494 150.286 91.6822 151.476L91.6847 151.482C92.045 152.472 92.9063 152.828 94.3712 152.661L95.5455 152.529C96.5836 152.409 97.0499 152.62 97.2751 153.239L97.2776 153.246C97.5503 153.995 97.043 154.74 95.9638 155.133C94.8846 155.526 94.0226 155.232 93.578 154.46L93.5418 154.403L92.6344 154.733L92.6638 154.793C93.2616 156.008 94.6149 156.496 96.2371 155.905ZM102.293 153.701C102.513 153.621 102.737 153.509 102.871 153.429L102.601 152.686C102.503 152.737 102.366 152.811 102.201 152.871C101.534 153.113 101.1 152.968 100.812 152.177L99.1033 147.482L100.519 146.967L100.242 146.204L98.8256 146.719L98.1226 144.788L97.1877 145.128L97.8907 147.06L96.839 147.442L97.1167 148.205L98.1685 147.823L99.8823 152.531C100.338 153.782 101.118 154.129 102.293 153.701ZM107.058 151.819L113.526 149.465L113.221 148.626L108.058 150.505L108.046 150.471L109.693 146.742C110.793 144.286 110.992 143.295 110.605 142.23L110.6 142.216C110.039 140.676 108.318 139.948 106.552 140.591C104.764 141.241 103.814 142.973 104.39 144.64L104.412 144.701L105.32 144.371L105.307 144.314C104.911 143.142 105.546 141.891 106.873 141.408C108.082 140.968 109.265 141.479 109.68 142.597L109.685 142.611C110 143.477 109.867 144.203 108.982 146.199L106.817 151.159L107.058 151.819ZM118.389 147.874C120.63 147.058 121.261 144.602 120.118 141.461L120.11 141.44C118.969 138.305 116.904 136.823 114.663 137.639C112.422 138.454 111.797 140.908 112.941 144.05L112.948 144.07C114.089 147.205 116.148 148.69 118.389 147.874ZM118.088 147.049C116.425 147.655 114.848 146.36 113.89 143.727L113.882 143.707C112.924 141.074 113.302 139.076 114.966 138.47C116.629 137.865 118.208 139.143 119.169 141.783L119.176 141.803C120.132 144.429 119.752 146.444 118.088 147.049ZM123.28 145.915L129.749 143.56L129.444 142.722L124.281 144.601L124.269 144.566L125.916 140.837C127.016 138.382 127.215 137.39 126.827 136.325L126.822 136.311C126.262 134.771 124.541 134.043 122.775 134.686C120.987 135.337 120.037 137.068 120.613 138.735L120.635 138.797L121.543 138.467L121.529 138.409C121.134 137.237 121.769 135.987 123.095 135.504C124.305 135.063 125.488 135.575 125.903 136.693L125.908 136.707C126.223 137.573 126.09 138.298 125.205 140.294L123.04 145.255L123.28 145.915ZM134.611 141.969C136.852 141.154 137.484 138.697 136.341 135.556L136.333 135.535C135.192 132.401 133.127 130.918 130.886 131.734C128.645 132.55 128.02 135.003 129.164 138.145L129.171 138.166C130.312 141.3 132.37 142.785 134.611 141.969ZM134.311 141.145C132.648 141.75 131.071 140.456 130.113 137.823L130.105 137.802C129.147 135.169 129.525 133.171 131.189 132.566C132.852 131.96 134.431 133.238 135.391 135.878L135.399 135.899C136.355 138.525 135.975 140.539 134.311 141.145ZM139.473 142.193L140.139 141.95L139.855 138.41L138.886 138.763L139.473 142.193ZM147.535 137.266C149.776 136.45 150.407 133.994 149.264 130.852L149.257 130.832C148.116 127.697 146.05 126.215 143.809 127.03C141.568 127.846 140.943 130.3 142.087 133.441L142.094 133.462C143.235 136.596 145.294 138.081 147.535 137.266ZM147.234 136.441C145.571 137.046 143.994 135.752 143.036 133.119L143.029 133.098C142.07 130.466 142.448 128.467 144.112 127.862C145.776 127.257 147.354 128.535 148.315 131.174L148.322 131.195C149.278 133.821 148.898 135.835 147.234 136.441ZM152.161 123.99C150.182 124.711 149.242 126.664 149.948 128.603L149.953 128.617C150.636 130.493 152.548 131.385 154.439 130.697C155.855 130.182 156.678 128.956 156.666 127.769L156.694 127.759C156.729 127.855 156.764 127.951 156.799 128.048C157.611 130.43 157.492 132.692 155.526 133.407C154.392 133.82 153.335 133.504 152.727 132.667L152.672 132.601L151.723 132.947L151.767 133.024C152.58 134.316 154.148 134.859 155.818 134.251C158.169 133.395 158.857 130.879 157.626 127.497L157.621 127.484C156.367 124.04 154.093 123.287 152.161 123.99ZM154.28 129.813C152.851 130.333 151.412 129.674 150.896 128.257L150.891 128.244C150.378 126.835 151.078 125.334 152.473 124.826C153.917 124.301 155.417 125.063 155.937 126.493L155.939 126.5C156.427 127.84 155.683 129.302 154.28 129.813ZM159.036 124.828C159.394 124.698 159.573 124.313 159.445 123.963C159.315 123.605 158.931 123.426 158.574 123.556C158.216 123.686 158.037 124.07 158.167 124.428C158.295 124.779 158.679 124.958 159.036 124.828ZM161.075 130.43C161.433 130.3 161.612 129.916 161.482 129.558C161.354 129.208 160.97 129.028 160.613 129.158C160.255 129.288 160.076 129.673 160.204 130.023C160.334 130.381 160.718 130.56 161.075 130.43ZM167.36 130.05C169.601 129.234 170.232 126.778 169.089 123.637L169.081 123.616C167.94 120.481 165.875 118.999 163.634 119.815C161.393 120.63 160.768 123.084 161.912 126.226L161.919 126.246C163.06 129.381 165.119 130.866 167.36 130.05ZM167.059 129.225C165.396 129.831 163.819 128.536 162.861 125.903L162.853 125.883C161.895 123.25 162.273 121.252 163.937 120.646C165.6 120.041 167.179 121.319 168.14 123.959L168.147 123.979C169.103 126.605 168.723 128.62 167.059 129.225ZM175.76 126.993C178.001 126.177 178.632 123.721 177.489 120.579L177.482 120.559C176.341 117.424 174.275 115.942 172.034 116.757C169.793 117.573 169.168 120.027 170.312 123.168L170.319 123.189C171.46 126.323 173.519 127.808 175.76 126.993ZM175.459 126.168C173.796 126.773 172.219 125.479 171.261 122.846L171.254 122.825C170.295 120.193 170.673 118.194 172.337 117.589C174.001 116.983 175.579 118.262 176.54 120.901L176.547 120.922C177.503 123.548 177.123 125.562 175.459 126.168ZM183.724 123.915L184.659 123.575L183.298 119.835L185.738 118.947C187.629 118.259 188.466 116.537 187.795 114.695L187.79 114.681C187.12 112.839 185.379 112.079 183.489 112.767L180.114 113.995L183.724 123.915ZM183.574 113.686C185.1 113.13 186.329 113.641 186.837 115.036L186.842 115.05C187.353 116.452 186.739 117.633 185.213 118.188L182.993 118.996L181.354 114.494L183.574 113.686ZM191.629 121.038L192.509 120.717L189.542 112.565L189.59 112.547L195.994 119.449L196.812 119.151L197.289 109.745L197.337 109.727L200.305 117.88L201.184 117.56L197.574 107.641L196.495 108.033L195.997 118.109L195.956 118.124L189.098 110.725L188.019 111.118L191.629 121.038Z" fill="#319BB6"/>
<circle cx="283.313" cy="55.0541" r="11.6524" transform="rotate(-20 283.313 55.0541)" fill="#FF354D"/>
<path d="M279.57 64.2295L281.356 56.0751L281.329 56.0017L274.783 50.9938L278.037 49.8095L282.577 53.5548L282.65 53.5281L283.747 47.7312L286.836 46.607L284.905 54.7624L284.928 54.8265L291.595 59.8528L288.442 61.0003L283.861 57.4259L283.788 57.4526L282.558 63.142L279.57 64.2295Z" fill="black"/>
<rect x="73.8834" y="253.511" width="276.328" height="33.2925" rx="8.32313" transform="rotate(-20 73.8834 253.511)" fill="#181818"/>
<path d="M70.3148 237.623L71.5447 241.002L73.6527 240.235C74.2189 240.028 74.6014 239.723 74.8002 239.319C75.003 238.913 75.0059 238.439 74.8087 237.897C74.6159 237.367 74.3045 237.013 73.8745 236.832C73.4445 236.652 72.9443 236.666 72.374 236.873L70.3148 237.623ZM71.8983 241.973L73.1682 245.462L72.0683 245.863L68.8591 237.045L72.1648 235.842C73.0162 235.532 73.7839 235.525 74.4681 235.821C75.1548 236.11 75.6427 236.652 75.9318 237.447C76.1557 238.062 76.1924 238.651 76.0418 239.213C75.8912 239.775 75.5708 240.245 75.0806 240.621L78.4536 243.539L77.1643 244.008L74.0063 241.206L71.8983 241.973ZM79.9376 236.722C79.4447 236.902 79.0976 237.222 78.8963 237.683C78.6975 238.138 78.679 238.638 78.8406 239.184L82.2929 237.927C82.085 237.394 81.7647 237.014 81.3321 236.789C80.8994 236.564 80.4346 236.541 79.9376 236.722ZM82.9601 239.836L84.005 239.456C84.1159 240.052 83.9909 240.621 83.63 241.163C83.2731 241.704 82.7504 242.099 82.062 242.35C81.1536 242.68 80.332 242.647 79.5971 242.251C78.8621 241.854 78.3123 241.154 77.9476 240.152C77.5858 239.158 77.5552 238.263 77.8557 237.466C78.1603 236.668 78.7484 236.11 79.6202 235.793C80.4756 235.482 81.2563 235.523 81.9624 235.916C82.6684 236.31 83.1971 236.989 83.5485 237.954L83.6952 238.358L79.137 240.017L79.1592 240.078C79.3816 240.689 79.7265 241.117 80.194 241.362C80.6615 241.607 81.1804 241.626 81.7506 241.418C82.1499 241.273 82.4566 241.057 82.671 240.772C82.8853 240.486 82.9817 240.174 82.9601 239.836ZM87.6293 239.299C88.1304 239.117 88.4936 238.809 88.719 238.377C88.947 237.939 88.978 237.491 88.812 237.035L88.6229 236.516L86.9621 237.238C86.5447 237.422 86.2505 237.647 86.0795 237.912C85.9125 238.176 85.8839 238.458 85.9936 238.76C86.1034 239.061 86.3077 239.261 86.6066 239.36C86.9055 239.459 87.2464 239.439 87.6293 239.299ZM87.7202 240.29C87.0888 240.52 86.5138 240.531 85.9952 240.323C85.4807 240.114 85.1197 239.724 84.9121 239.153C84.7134 238.608 84.7544 238.099 85.035 237.628C85.3197 237.155 85.8212 236.765 86.5396 236.458L88.3227 235.691L88.1292 235.159C87.9883 234.772 87.7557 234.513 87.4312 234.382C87.1067 234.251 86.7245 234.266 86.2846 234.426C85.8813 234.573 85.586 234.782 85.3987 235.053C85.2099 235.32 85.1387 235.625 85.1851 235.968L84.1585 236.342C83.9891 235.762 84.0645 235.209 84.3847 234.682C84.7075 234.149 85.2355 233.749 85.9688 233.482C86.7142 233.211 87.3731 233.183 87.9453 233.399C88.5217 233.614 88.9248 234.037 89.1546 234.668L90.7536 239.062L89.7454 239.429L89.3473 238.335L89.3229 238.344C89.2634 238.776 89.0883 239.17 88.7977 239.525C88.5071 239.879 88.1479 240.135 87.7202 240.29ZM90.3194 234.009C90.1207 233.463 90.1783 232.937 90.4922 232.431C90.8087 231.919 91.3153 231.536 92.0118 231.283C92.6677 231.044 93.2773 231.02 93.8407 231.212C94.404 231.404 94.7958 231.764 95.0159 232.293L94.0016 232.662C93.8523 232.366 93.6256 232.174 93.3215 232.086C93.0215 231.997 92.678 232.023 92.291 232.164C91.904 232.305 91.6242 232.506 91.4517 232.767C91.2777 233.024 91.2419 233.293 91.3442 233.574C91.5014 234.006 91.9649 234.183 92.7349 234.106L93.8054 233.986C94.5042 233.916 95.0314 233.964 95.387 234.13C95.7452 234.29 96.0096 234.605 96.1801 235.073C96.3817 235.627 96.3108 236.167 95.9672 236.694C95.6222 237.216 95.079 237.612 94.3376 237.882C93.6451 238.134 93.0105 238.171 92.4338 237.994C91.8597 237.81 91.4411 237.446 91.178 236.901L92.2412 236.514C92.6054 237.147 93.2214 237.306 94.089 236.99C94.5167 236.834 94.8245 236.627 95.0122 236.37C95.2024 236.107 95.2449 235.831 95.1397 235.542C95.0567 235.314 94.9153 235.16 94.7157 235.08C94.5201 234.999 94.2281 234.976 93.8396 235.012L92.6168 235.131C91.401 235.251 90.6352 234.877 90.3194 234.009ZM100.607 235.6C99.7188 235.923 98.8984 235.887 98.1457 235.492C97.3915 235.093 96.8313 234.391 96.4651 233.385C96.0989 232.379 96.0772 231.482 96.3999 230.696C96.7211 229.905 97.3258 229.349 98.2138 229.025C99.0978 228.704 99.9168 228.742 100.671 229.141C101.424 229.536 101.983 230.237 102.349 231.243C102.714 232.245 102.736 233.141 102.415 233.932C102.093 234.722 101.491 235.278 100.607 235.6ZM98.6771 234.538C99.1664 234.83 99.6962 234.873 100.267 234.665C100.837 234.458 101.214 234.087 101.398 233.554C101.581 233.017 101.538 232.378 101.268 231.637C100.998 230.895 100.621 230.38 100.137 230.09C99.6521 229.796 99.1244 229.753 98.5541 229.96C97.9838 230.168 97.6052 230.541 97.4183 231.079C97.2355 231.617 97.2783 232.254 97.5466 232.991C97.815 233.728 98.1918 234.244 98.6771 234.538ZM104.581 234.029L102.268 227.674L103.27 227.309L103.64 228.324L103.664 228.315C103.718 227.894 103.881 227.523 104.152 227.203C104.422 226.879 104.795 226.63 105.271 226.457C105.964 226.205 106.58 226.218 107.119 226.497C107.658 226.771 108.059 227.271 108.323 227.996L109.824 232.121L108.761 232.508L107.328 228.573C107.14 228.055 106.875 227.707 106.533 227.527C106.189 227.343 105.775 227.339 105.29 227.516C104.789 227.698 104.447 228.007 104.264 228.442C104.081 228.878 104.088 229.365 104.283 229.902L105.644 233.642L104.581 234.029Z" fill="white"/>
<path d="M95.24 268.194L95.6003 269.184L90.1377 271.172L86.9285 262.355L92.3911 260.367L92.7514 261.357L88.3887 262.945L89.4183 265.774L93.555 264.268L93.9109 265.246L89.7742 266.751L90.8773 269.782L95.24 268.194ZM96.8896 268.715L94.5767 262.36L95.5787 261.995L95.9479 263.01L95.9724 263.001C96.0267 262.58 96.1893 262.209 96.4604 261.889C96.7299 261.565 97.1029 261.316 97.5796 261.143C98.2721 260.89 98.8882 260.904 99.4279 261.183C99.9661 261.457 100.367 261.957 100.631 262.682L102.132 266.807L101.069 267.194L99.6368 263.259C99.4485 262.741 99.1832 262.393 98.8409 262.213C98.4972 262.029 98.0829 262.025 97.5982 262.201C97.0972 262.384 96.7552 262.693 96.5724 263.128C96.3896 263.564 96.396 264.051 96.5917 264.588L97.9528 268.328L96.8896 268.715ZM100.96 258.3L102.023 257.913L102.581 259.447L103.815 258.997L104.133 259.871L102.899 260.32L104.274 264.097C104.379 264.386 104.52 264.577 104.697 264.669C104.872 264.758 105.096 264.752 105.369 264.653C105.54 264.591 105.683 264.527 105.798 264.462L106.122 265.354C105.996 265.437 105.777 265.535 105.468 265.648C104.885 265.86 104.422 265.881 104.079 265.71C103.736 265.54 103.453 265.15 103.23 264.539L101.836 260.707L100.889 261.052L100.571 260.178L101.518 259.834L100.96 258.3ZM107.612 258.536C107.12 258.715 106.772 259.035 106.571 259.496C106.372 259.951 106.354 260.452 106.515 260.997L109.968 259.741C109.76 259.207 109.439 258.828 109.007 258.603C108.574 258.377 108.109 258.355 107.612 258.536ZM110.635 261.65L111.68 261.269C111.791 261.866 111.666 262.435 111.305 262.977C110.948 263.517 110.425 263.913 109.737 264.163C108.828 264.494 108.007 264.461 107.272 264.064C106.537 263.667 105.987 262.968 105.622 261.966C105.261 260.972 105.23 260.076 105.53 259.28C105.835 258.481 106.423 257.924 107.295 257.606C108.15 257.295 108.931 257.336 109.637 257.73C110.343 258.123 110.872 258.803 111.223 259.768L111.37 260.171L106.812 261.83L106.834 261.891C107.056 262.502 107.401 262.93 107.869 263.176C108.336 263.421 108.855 263.439 109.425 263.232C109.825 263.086 110.131 262.871 110.346 262.585C110.56 262.3 110.657 261.988 110.635 261.65ZM113.497 262.67L111.184 256.315L112.187 255.951L112.565 256.989L112.589 256.98C112.566 256.587 112.654 256.239 112.853 255.936C113.054 255.628 113.34 255.406 113.711 255.271C113.796 255.24 113.944 255.202 114.154 255.158L114.53 256.191C114.401 256.192 114.204 256.24 113.939 256.337C113.528 256.486 113.248 256.743 113.099 257.106C112.949 257.47 112.956 257.875 113.119 258.324L114.561 262.283L113.497 262.67ZM118.337 252.031L119.567 255.41L121.675 254.642C122.241 254.436 122.624 254.131 122.822 253.726C123.025 253.32 123.028 252.847 122.831 252.305C122.638 251.775 122.327 251.42 121.897 251.24C121.467 251.06 120.966 251.073 120.396 251.281L118.337 252.031ZM119.92 256.381L121.19 259.87L120.09 260.27L116.881 251.453L120.187 250.25C121.038 249.94 121.806 249.933 122.49 250.228C123.177 250.518 123.665 251.06 123.954 251.854C124.178 252.47 124.214 253.058 124.064 253.62C123.913 254.183 123.593 254.652 123.103 255.029L126.476 257.946L125.186 258.416L122.028 255.614L119.92 256.381ZM127.96 251.13C127.467 251.309 127.12 251.629 126.918 252.09C126.72 252.545 126.701 253.046 126.863 253.591L130.315 252.335C130.107 251.801 129.787 251.422 129.354 251.197C128.921 250.971 128.457 250.949 127.96 251.13ZM130.982 254.244L132.027 253.864C132.138 254.46 132.013 255.029 131.652 255.571C131.295 256.111 130.773 256.507 130.084 256.757C129.176 257.088 128.354 257.055 127.619 256.658C126.884 256.261 126.334 255.562 125.97 254.56C125.608 253.566 125.577 252.671 125.878 251.874C126.182 251.076 126.77 250.518 127.642 250.201C128.498 249.889 129.278 249.93 129.984 250.324C130.69 250.717 131.219 251.397 131.571 252.362L131.717 252.765L127.159 254.425L127.181 254.486C127.404 255.097 127.749 255.525 128.216 255.77C128.684 256.015 129.202 256.034 129.773 255.826C130.172 255.681 130.479 255.465 130.693 255.18C130.907 254.894 131.004 254.582 130.982 254.244ZM135.651 253.707C136.152 253.525 136.516 253.217 136.741 252.785C136.969 252.346 137 251.899 136.834 251.443L136.645 250.923L134.984 251.646C134.567 251.83 134.273 252.055 134.102 252.32C133.935 252.583 133.906 252.866 134.016 253.168C134.125 253.469 134.33 253.669 134.629 253.768C134.928 253.867 135.268 253.846 135.651 253.707ZM135.742 254.698C135.111 254.928 134.536 254.939 134.017 254.731C133.503 254.521 133.142 254.131 132.934 253.561C132.736 253.015 132.776 252.507 133.057 252.036C133.342 251.563 133.843 251.173 134.562 250.865L136.345 250.099L136.151 249.567C136.01 249.18 135.778 248.921 135.453 248.79C135.129 248.659 134.747 248.674 134.307 248.834C133.903 248.98 133.608 249.189 133.421 249.461C133.232 249.728 133.161 250.033 133.207 250.376L132.181 250.749C132.011 250.17 132.087 249.616 132.407 249.089C132.73 248.557 133.258 248.157 133.991 247.89C134.736 247.619 135.395 247.591 135.967 247.807C136.544 248.022 136.947 248.445 137.177 249.076L138.776 253.469L137.767 253.836L137.369 252.743L137.345 252.752C137.285 253.184 137.11 253.577 136.82 253.932C136.529 254.287 136.17 254.542 135.742 254.698ZM138.341 248.417C138.143 247.871 138.2 247.345 138.514 246.839C138.831 246.327 139.337 245.944 140.034 245.69C140.69 245.452 141.299 245.428 141.863 245.62C142.426 245.812 142.818 246.172 143.038 246.701L142.024 247.07C141.874 246.774 141.648 246.582 141.344 246.494C141.044 246.405 140.7 246.431 140.313 246.571C139.926 246.712 139.646 246.913 139.474 247.174C139.3 247.431 139.264 247.701 139.366 247.982C139.523 248.413 139.987 248.591 140.757 248.513L141.827 248.394C142.526 248.324 143.054 248.372 143.409 248.538C143.767 248.698 144.032 249.012 144.202 249.481C144.404 250.035 144.333 250.575 143.989 251.101C143.644 251.624 143.101 252.02 142.36 252.29C141.667 252.542 141.033 252.579 140.456 252.401C139.882 252.218 139.463 251.854 139.2 251.308L140.263 250.921C140.627 251.555 141.243 251.713 142.111 251.397C142.539 251.242 142.847 251.035 143.034 250.778C143.225 250.515 143.267 250.239 143.162 249.949C143.079 249.721 142.937 249.567 142.738 249.488C142.542 249.407 142.25 249.384 141.862 249.419L140.639 249.539C139.423 249.659 138.657 249.285 138.341 248.417ZM148.629 250.008C147.741 250.331 146.92 250.295 146.168 249.9C145.414 249.501 144.853 248.799 144.487 247.792C144.121 246.786 144.099 245.89 144.422 245.104C144.743 244.313 145.348 243.756 146.236 243.433C147.12 243.111 147.939 243.15 148.693 243.549C149.446 243.944 150.005 244.645 150.371 245.651C150.736 246.653 150.758 247.549 150.437 248.339C150.115 249.13 149.513 249.686 148.629 250.008ZM146.699 248.946C147.188 249.238 147.718 249.28 148.289 249.073C148.859 248.865 149.236 248.495 149.42 247.962C149.603 247.425 149.56 246.786 149.29 246.044C149.02 245.303 148.643 244.787 148.159 244.497C147.674 244.204 147.146 244.16 146.576 244.368C146.006 244.576 145.627 244.949 145.44 245.487C145.258 246.024 145.3 246.661 145.569 247.399C145.837 248.136 146.214 248.652 146.699 248.946ZM152.603 248.437L150.29 242.082L151.292 241.717L151.662 242.731L151.686 242.723C151.74 242.301 151.903 241.931 152.174 241.611C152.444 241.287 152.817 241.038 153.293 240.864C153.986 240.612 154.602 240.626 155.142 240.904C155.68 241.179 156.081 241.679 156.345 242.404L157.846 246.528L156.783 246.915L155.351 242.98C155.162 242.463 154.897 242.114 154.555 241.935C154.211 241.751 153.797 241.747 153.312 241.923C152.811 242.106 152.469 242.415 152.286 242.85C152.103 243.286 152.11 243.772 152.305 244.31L153.666 248.05L152.603 248.437ZM162.111 244.976L160.116 239.495L159.23 239.818L158.912 238.944L159.798 238.621L159.54 237.913C159.318 237.302 159.296 236.798 159.474 236.4C159.655 235.998 160.039 235.69 160.625 235.476C160.853 235.393 161.075 235.331 161.291 235.289L161.604 236.151C161.424 236.189 161.259 236.235 161.108 236.29C160.542 236.496 160.372 236.911 160.599 237.534L160.855 238.237L162.157 237.763L162.475 238.637L161.179 239.108L163.174 244.589L162.111 244.976ZM167.937 242.98C167.049 243.303 166.229 243.267 165.476 242.872C164.722 242.473 164.162 241.771 163.796 240.765C163.43 239.758 163.408 238.862 163.731 238.076C164.052 237.285 164.656 236.729 165.544 236.405C166.428 236.084 167.247 236.122 168.002 236.521C168.754 236.916 169.314 237.617 169.68 238.623C170.045 239.625 170.066 240.521 169.745 241.312C169.424 242.102 168.821 242.658 167.937 242.98ZM166.008 241.918C166.497 242.21 167.027 242.253 167.597 242.045C168.167 241.838 168.545 241.467 168.729 240.934C168.912 240.397 168.868 239.758 168.598 239.017C168.329 238.275 167.952 237.76 167.468 237.47C166.983 237.176 166.455 237.133 165.885 237.34C165.314 237.548 164.936 237.921 164.749 238.459C164.566 238.996 164.609 239.634 164.877 240.371C165.146 241.108 165.522 241.624 166.008 241.918ZM171.912 241.409L169.599 235.054L170.601 234.689L170.979 235.728L171.004 235.719C170.98 235.326 171.068 234.978 171.267 234.675C171.468 234.367 171.755 234.145 172.125 234.01C172.211 233.979 172.359 233.941 172.568 233.897L172.944 234.93C172.815 234.931 172.619 234.979 172.354 235.076C171.942 235.225 171.662 235.482 171.513 235.845C171.364 236.209 171.371 236.614 171.534 237.062L172.975 241.022L171.912 241.409ZM176.396 229.792L178.453 235.444C178.7 236.124 179.114 236.601 179.693 236.874C180.275 237.142 180.941 237.14 181.69 236.867C182.44 236.594 182.949 236.169 183.219 235.591C183.491 235.008 183.503 234.376 183.255 233.696L181.198 228.044L182.298 227.643L184.382 233.369C184.73 234.326 184.699 235.221 184.287 236.054C183.877 236.881 183.135 237.49 182.059 237.882C180.984 238.273 180.022 238.284 179.172 237.915C178.326 237.541 177.728 236.875 177.38 235.917L175.296 230.192L176.396 229.792ZM187.053 235.898L184.74 229.543L185.742 229.178L186.112 230.193L186.136 230.184C186.19 229.763 186.353 229.392 186.624 229.072C186.893 228.748 187.267 228.499 187.743 228.326C188.436 228.074 189.052 228.087 189.591 228.366C190.13 228.64 190.531 229.14 190.795 229.865L192.296 233.99L191.233 234.377L189.8 230.442C189.612 229.924 189.347 229.576 189.005 229.396C188.661 229.212 188.247 229.208 187.762 229.385C187.261 229.567 186.919 229.876 186.736 230.311C186.553 230.747 186.56 231.234 186.755 231.771L188.116 235.511L187.053 235.898ZM195.459 231.939C195.96 231.756 196.323 231.449 196.549 231.016C196.777 230.578 196.808 230.131 196.642 229.675L196.453 229.155L194.792 229.877C194.374 230.062 194.08 230.286 193.909 230.552C193.742 230.815 193.714 231.098 193.823 231.399C193.933 231.701 194.137 231.901 194.436 232C194.735 232.098 195.076 232.078 195.459 231.939ZM195.55 232.93C194.918 233.16 194.343 233.171 193.825 232.963C193.31 232.753 192.949 232.363 192.742 231.793C192.543 231.247 192.584 230.739 192.865 230.267C193.149 229.795 193.651 229.405 194.369 229.097L196.152 228.33L195.959 227.799C195.818 227.412 195.585 227.153 195.261 227.022C194.936 226.891 194.554 226.905 194.114 227.065C193.711 227.212 193.416 227.421 193.228 227.692C193.04 227.959 192.968 228.264 193.015 228.607L191.988 228.981C191.819 228.401 191.894 227.848 192.214 227.321C192.537 226.788 193.065 226.389 193.798 226.122C194.544 225.85 195.203 225.823 195.775 226.039C196.351 226.254 196.754 226.677 196.984 227.308L198.583 231.701L197.575 232.068L197.177 230.974L197.153 230.983C197.093 231.416 196.918 231.809 196.627 232.164C196.337 232.519 195.978 232.774 195.55 232.93ZM202.833 222.958L202.812 230.162L201.724 230.558L197.071 225.055L198.189 224.648L201.844 229.234L201.869 229.225L201.727 223.361L202.833 222.958ZM207.667 227.495C208.168 227.313 208.532 227.005 208.757 226.573C208.985 226.135 209.016 225.687 208.85 225.231L208.661 224.712L207 225.434C206.583 225.618 206.289 225.843 206.118 226.108C205.951 226.372 205.922 226.654 206.032 226.956C206.141 227.257 206.346 227.457 206.645 227.556C206.944 227.655 207.284 227.635 207.667 227.495ZM207.758 228.486C207.127 228.716 206.552 228.727 206.033 228.519C205.519 228.31 205.158 227.92 204.95 227.349C204.752 226.804 204.792 226.295 205.073 225.824C205.358 225.351 205.859 224.961 206.578 224.654L208.361 223.887L208.167 223.355C208.026 222.968 207.794 222.709 207.469 222.578C207.145 222.447 206.763 222.462 206.323 222.622C205.919 222.769 205.624 222.978 205.437 223.249C205.248 223.516 205.177 223.821 205.223 224.164L204.197 224.538C204.027 223.958 204.103 223.405 204.423 222.878C204.746 222.345 205.274 221.945 206.007 221.678C206.752 221.407 207.411 221.379 207.983 221.595C208.56 221.81 208.963 222.233 209.193 222.864L210.792 227.258L209.783 227.625L209.385 226.531L209.361 226.54C209.301 226.972 209.126 227.366 208.836 227.721C208.545 228.075 208.186 228.331 207.758 228.486ZM212.197 226.746L209.884 220.392L210.947 220.005L213.26 226.359L212.197 226.746ZM210.027 219.129C209.847 219.194 209.669 219.185 209.491 219.102C209.313 219.019 209.192 218.888 209.126 218.709C209.06 218.526 209.069 218.347 209.153 218.173C209.236 217.996 209.367 217.874 209.546 217.809C209.729 217.742 209.91 217.75 210.088 217.833C210.264 217.912 210.386 218.043 210.452 218.226C210.518 218.406 210.509 218.584 210.426 218.762C210.343 218.94 210.21 219.062 210.027 219.129ZM214.751 225.817L211.542 216.999L212.605 216.613L215.814 225.43L214.751 225.817ZM219.057 223.35C219.558 223.168 219.921 222.86 220.147 222.427C220.375 221.989 220.406 221.542 220.24 221.086L220.051 220.566L218.39 221.288C217.972 221.473 217.678 221.697 217.507 221.963C217.34 222.226 217.312 222.509 217.421 222.81C217.531 223.112 217.735 223.312 218.034 223.411C218.333 223.51 218.674 223.489 219.057 223.35ZM219.148 224.341C218.516 224.571 217.941 224.582 217.423 224.374C216.908 224.164 216.547 223.774 216.34 223.204C216.141 222.658 216.182 222.15 216.463 221.678C216.747 221.206 217.249 220.816 217.967 220.508L219.75 219.741L219.557 219.21C219.416 218.823 219.183 218.564 218.859 218.433C218.534 218.302 218.152 218.316 217.712 218.477C217.309 218.623 217.014 218.832 216.826 219.103C216.638 219.371 216.566 219.676 216.613 220.018L215.586 220.392C215.417 219.813 215.492 219.259 215.812 218.732C216.135 218.199 216.663 217.8 217.396 217.533C218.142 217.261 218.801 217.234 219.373 217.45C219.949 217.665 220.352 218.088 220.582 218.719L222.181 223.112L221.173 223.479L220.775 222.386L220.751 222.394C220.691 222.827 220.516 223.22 220.225 223.575C219.935 223.93 219.576 224.185 219.148 224.341ZM226.731 221.581C226.274 221.747 225.829 221.791 225.395 221.714C224.965 221.635 224.578 221.446 224.234 221.147L224.21 221.156L224.601 222.232L223.587 222.601L220.377 213.784L221.441 213.397L222.724 216.922L222.748 216.913C222.814 216.474 222.987 216.086 223.266 215.749C223.549 215.411 223.912 215.161 224.356 215C225.159 214.708 225.915 214.771 226.626 215.191C227.337 215.61 227.873 216.317 228.235 217.311C228.598 218.309 228.642 219.197 228.367 219.975C228.091 220.749 227.545 221.284 226.731 221.581ZM224.47 216.017C223.928 216.214 223.566 216.593 223.382 217.153C223.197 217.71 223.232 218.338 223.487 219.039C223.744 219.743 224.122 220.249 224.621 220.557C225.12 220.864 225.641 220.919 226.183 220.722C226.745 220.517 227.112 220.146 227.286 219.608C227.457 219.065 227.411 218.432 227.147 217.707C226.885 216.986 226.514 216.472 226.034 216.167C225.553 215.862 225.032 215.812 224.47 216.017ZM230.528 220.074L228.215 213.72L229.278 213.333L231.591 219.687L230.528 220.074ZM228.357 212.457C228.178 212.522 228 212.513 227.822 212.43C227.644 212.347 227.523 212.216 227.457 212.037C227.391 211.854 227.399 211.675 227.484 211.502C227.567 211.324 227.698 211.202 227.877 211.137C228.06 211.07 228.241 211.078 228.419 211.161C228.595 211.24 228.717 211.371 228.783 211.555C228.848 211.734 228.84 211.912 228.757 212.09C228.674 212.268 228.541 212.39 228.357 212.457ZM233.082 219.145L229.873 210.328L230.936 209.941L234.145 218.758L233.082 219.145ZM235.636 218.215L233.323 211.86L234.386 211.473L236.699 217.828L235.636 218.215ZM233.466 210.598C233.286 210.663 233.108 210.654 232.93 210.571C232.752 210.488 232.631 210.357 232.566 210.178C232.499 209.995 232.508 209.816 232.592 209.642C232.675 209.465 232.806 209.343 232.985 209.278C233.169 209.211 233.349 209.219 233.527 209.302C233.703 209.381 233.825 209.512 233.891 209.695C233.957 209.875 233.948 210.053 233.865 210.231C233.782 210.409 233.649 210.531 233.466 210.598ZM235.606 209.293L236.669 208.906L237.228 210.439L238.462 209.99L238.78 210.864L237.546 211.313L238.92 215.089C239.025 215.378 239.166 215.569 239.343 215.662C239.518 215.75 239.742 215.745 240.015 215.646C240.186 215.583 240.329 215.52 240.444 215.455L240.769 216.347C240.642 216.43 240.424 216.528 240.114 216.641C239.532 216.853 239.069 216.873 238.726 216.703C238.382 216.533 238.099 216.142 237.877 215.531L236.483 211.7L235.535 212.045L235.217 211.171L236.165 210.826L235.606 209.293ZM243.302 218.117C243.115 218.185 242.957 218.228 242.83 218.247L242.506 217.355C242.611 217.34 242.753 217.299 242.932 217.234C243.23 217.126 243.439 216.96 243.561 216.736C243.683 216.516 243.739 216.198 243.726 215.783L243.71 215.283L239.049 209.777L240.185 209.363L243.871 214.014L243.889 214.007L243.723 208.075L244.841 207.668L244.817 215.379C244.814 216.219 244.703 216.834 244.485 217.223C244.271 217.61 243.876 217.908 243.302 218.117Z" fill="#303030"/>
<path d="M65.8769 213.472C69.204 212.261 70.5032 209.556 69.449 206.66L66.3266 198.081L64.2827 198.825L67.3451 207.239C68.0456 209.164 67.3245 210.89 65.2164 211.657C63.1084 212.424 61.4373 211.569 60.7368 209.644L57.6744 201.23L55.6213 201.977L58.7438 210.556C59.7979 213.453 62.5591 214.679 65.8769 213.472ZM73.34 210.506L75.3198 209.786L73.2748 204.167C72.7277 202.664 73.259 201.329 74.6522 200.822C76.027 200.322 77.0021 200.89 77.5292 202.339L79.6642 208.204L81.6531 207.48L79.3813 201.239C78.574 199.021 76.858 198.099 74.7407 198.869C73.2834 199.4 72.5338 200.42 72.3866 201.584L72.3408 201.601L71.8104 200.144L69.8306 200.864L73.34 210.506ZM86.4642 205.927C87.7382 205.463 88.6162 204.396 88.7983 203.157L88.835 203.143L89.3887 204.665L91.3776 203.941L88.9591 197.296C88.2552 195.362 86.3075 194.659 83.952 195.517C81.5782 196.381 80.6029 198.179 81.0692 199.888L81.0967 199.992L82.9665 199.311L82.9548 199.222C82.8396 198.392 83.3485 197.594 84.4942 197.177C85.7223 196.73 86.6433 197.122 87.0302 198.185L87.2938 198.909L84.7292 200.019C82.497 200.987 81.5691 202.487 82.1796 204.165L82.1863 204.183C82.8168 205.915 84.5394 206.627 86.4642 205.927ZM84.1677 203.41L84.161 203.392C83.8641 202.576 84.3339 201.813 85.4987 201.306L87.8008 200.302L88.0744 201.054C88.5314 202.309 87.821 203.637 86.4278 204.144C85.3646 204.531 84.4746 204.253 84.1677 203.41ZM95.9329 202.283L98.0593 201.509L98.0052 190.609L95.943 191.36L96.3288 199.949L96.283 199.966L91.0578 193.138L88.9497 193.905L95.9329 202.283ZM105.345 199.055C106.619 198.591 107.497 197.524 107.679 196.285L107.716 196.271L108.27 197.793L110.258 197.069L107.84 190.424C107.136 188.49 105.188 187.787 102.833 188.645C100.459 189.509 99.4837 191.306 99.95 193.015L99.9776 193.12L101.847 192.439L101.836 192.35C101.72 191.52 102.229 190.722 103.375 190.305C104.603 189.858 105.524 190.25 105.911 191.313L106.175 192.037L103.61 193.147C101.378 194.115 100.45 195.615 101.06 197.293L101.067 197.311C101.698 199.043 103.42 199.755 105.345 199.055ZM103.048 196.538L103.042 196.519C102.745 195.704 103.215 194.941 104.38 194.434L106.682 193.43L106.955 194.182C107.412 195.437 106.702 196.765 105.309 197.272C104.245 197.659 103.355 197.381 103.048 196.538ZM109.206 184.851C109.856 184.614 110.174 183.918 109.947 183.294C109.717 182.662 109.026 182.332 108.375 182.569C107.733 182.803 107.407 183.503 107.637 184.135C107.864 184.758 108.564 185.085 109.206 184.851ZM112.266 196.338L114.245 195.618L110.736 185.976L108.756 186.696L112.266 196.338ZM116.363 194.847L118.342 194.127L113.529 180.901L111.549 181.622L116.363 194.847ZM123.273 192.529C124.547 192.066 125.425 190.999 125.607 189.76L125.643 189.746L126.197 191.268L128.186 190.544L125.768 183.899C125.064 181.965 123.116 181.262 120.76 182.12C118.387 182.984 117.411 184.781 117.878 186.49L117.905 186.595L119.775 185.914L119.763 185.825C119.648 184.995 120.157 184.197 121.303 183.78C122.531 183.333 123.452 183.725 123.839 184.788L124.102 185.512L121.538 186.622C119.305 187.59 118.378 189.09 118.988 190.767L118.995 190.786C119.625 192.518 121.348 193.23 123.273 192.529ZM120.976 190.013L120.969 189.994C120.673 189.179 121.142 188.416 122.307 187.909L124.609 186.905L124.883 187.657C125.34 188.912 124.629 190.24 123.236 190.747C122.173 191.134 121.283 190.856 120.976 190.013ZM135.304 188.171C137.752 187.28 138.63 184.76 137.512 181.69L137.509 181.681C136.392 178.61 134.096 177.266 131.677 178.146C130.311 178.644 129.461 179.731 129.297 181.078L129.252 181.095L127.35 175.87L125.37 176.591L130.184 189.817L132.164 189.096L131.57 187.465L131.616 187.448C132.594 188.368 133.92 188.675 135.304 188.171ZM134.161 186.656C132.658 187.203 131.131 186.286 130.4 184.278L130.397 184.269C129.669 182.271 130.259 180.583 131.753 180.039C133.311 179.472 134.743 180.383 135.483 182.418L135.487 182.427C136.234 184.48 135.72 186.089 134.161 186.656ZM140.871 185.927L142.851 185.206L138.037 171.981L136.057 172.701L140.871 185.927ZM149.071 183.16C151.408 182.31 152.386 180.376 152.14 178.732L152.122 178.625L150.243 179.308L150.242 179.392C150.258 180.206 149.699 181.094 148.526 181.521C146.95 182.095 145.564 181.396 144.863 179.585L151.692 177.1L151.448 176.431C150.394 173.534 148.028 172.195 145.324 173.179C142.62 174.163 141.613 176.814 142.71 179.829L142.713 179.838C143.821 182.881 146.239 184.191 149.071 183.16ZM145.923 174.798C147.216 174.328 148.448 174.803 149.22 176.411L144.38 178.173C143.967 176.496 144.64 175.265 145.923 174.798Z" fill="white"/>
<rect x="95.5154" y="303.21" width="268.005" height="39.951" rx="8.32313" transform="rotate(-20 95.5154 303.21)" fill="#F65467"/>
<path d="M219.702 284.066L220.985 283.599L219.957 280.775L221.75 280.122C223.371 279.532 224.091 278.018 223.503 276.403L223.499 276.391C222.909 274.77 221.39 274.09 219.769 274.68L216.693 275.8L219.702 284.066ZM219.842 275.88C220.959 275.473 221.82 275.841 222.195 276.872L222.199 276.884C222.577 277.921 222.154 278.756 221.037 279.162L219.565 279.698L218.37 276.416L219.842 275.88ZM228.865 280.867C230.589 280.24 231.29 278.635 230.583 276.693L230.579 276.682C229.876 274.751 228.299 273.983 226.58 274.608C224.868 275.231 224.161 276.838 224.862 278.763L224.866 278.774C225.571 280.71 227.135 281.497 228.865 280.867ZM228.493 279.828C227.525 280.181 226.618 279.648 226.132 278.313L226.128 278.302C225.648 276.984 226.007 275.991 226.958 275.645C227.926 275.293 228.833 275.825 229.313 277.143L229.317 277.154C229.801 278.483 229.461 279.476 228.493 279.828ZM234.937 278.657C236.358 278.14 237.114 277.009 236.713 275.909L236.711 275.903C236.396 275.038 235.749 274.722 234.414 274.884L233.353 275.017C232.649 275.098 232.311 274.936 232.175 274.563L232.173 274.557C231.998 274.076 232.302 273.609 232.966 273.367C233.665 273.113 234.211 273.329 234.477 273.829L234.498 273.867L235.66 273.444L235.63 273.377C235.193 272.375 234.044 271.891 232.618 272.41C231.232 272.915 230.561 273.996 230.953 275.073L230.955 275.079C231.274 275.955 232.042 276.299 233.283 276.145L234.35 276.01C235.053 275.929 235.352 276.073 235.494 276.463L235.496 276.468C235.673 276.955 235.339 277.427 234.595 277.698C233.833 277.976 233.301 277.799 232.985 277.285L232.952 277.232L231.726 277.678L231.751 277.728C232.277 278.782 233.43 279.205 234.937 278.657ZM240.465 276.645C240.717 276.553 240.941 276.439 241.076 276.364L240.728 275.407C240.641 275.452 240.536 275.503 240.404 275.551C239.883 275.741 239.541 275.658 239.318 275.045L238.088 271.665L239.216 271.254L238.858 270.269L237.729 270.68L237.158 269.11L235.892 269.571L236.463 271.141L235.598 271.455L235.957 272.441L236.822 272.126L238.079 275.58C238.517 276.783 239.273 277.079 240.465 276.645Z" fill="white"/>
</g>
<defs>
<clipPath id="clip0">
<path d="M6.07785 123.188C2.9335 114.549 7.38782 104.996 16.0269 101.852L278.036 6.48836C286.675 3.34401 296.228 7.79832 299.372 16.4374L396.444 283.14C399.588 291.779 395.134 301.331 386.495 304.475L124.485 399.839C115.846 402.983 106.294 398.529 103.15 389.89L6.07785 123.188Z" fill="white"/>
</clipPath>
</defs>
</svg>
