<svg width="379" height="507" viewBox="0 0 379 507" fill="none" xmlns="http://www.w3.org/2000/svg">
<g clip-path="url(#clip0)">
<rect x="1.06192" y="157.239" width="457.037" height="371.779" rx="25.7071" transform="rotate(-20 1.06192 157.239)" fill="#121212"/>
<circle cx="134.206" cy="233.739" r="70.6594" transform="rotate(-20 134.206 233.739)" fill="#FF5A6E"/>
<path d="M123.702 258.909C132.963 255.538 136.579 248.011 133.645 239.949L124.954 216.07L119.265 218.141L127.789 241.56C129.739 246.918 127.731 251.722 121.864 253.858C115.996 255.993 111.345 253.613 109.395 248.255L100.871 224.836L95.1561 226.915L103.847 250.794C106.781 258.856 114.467 262.27 123.702 258.909ZM145.139 250.413L158.124 245.687C169.094 241.694 173.06 232.508 168.826 220.875L168.807 220.824C164.592 209.241 155.644 204.9 144.725 208.874L131.74 213.6L145.139 250.413ZM149.052 243.384L139.246 216.444L145.981 213.993C153.737 211.17 159.836 214.353 162.984 223.001L163.002 223.052C166.168 231.752 163.593 238.091 155.787 240.933L149.052 243.384Z" fill="white"/>
<path d="M239.094 159.978C236.592 160.889 234.388 160.9 232.481 160.01C230.569 159.104 229.135 157.34 228.18 154.717L224.459 144.492L227.824 143.268L231.498 153.362C232.792 156.917 234.975 158.136 238.046 157.018C241.101 155.906 241.981 153.573 240.687 150.018L237.013 139.923L240.326 138.717L244.047 148.942C245.002 151.564 245.038 153.838 244.155 155.762C243.283 157.662 241.596 159.067 239.094 159.978ZM259.358 151.459C259.092 151.908 258.711 152.311 258.215 152.667C257.737 153.017 257.195 153.302 256.591 153.522C255.073 154.074 253.755 154.105 252.638 153.612C251.521 153.12 250.686 152.114 250.133 150.596L247.712 143.944L245.434 144.773L244.492 142.184L246.769 141.355L245.62 138.197L248.856 137.02L250.005 140.178L253.707 138.83L254.649 141.419L250.947 142.766L253.34 149.341C253.585 150.014 253.937 150.472 254.397 150.715C254.851 150.94 255.388 150.94 256.009 150.714C256.734 150.45 257.269 150.041 257.614 149.485L259.358 151.459ZM265.779 143.26L264.2 146.414L265.529 150.063L262.293 151.241L255.303 132.035L258.538 130.857L262.759 142.453L267.202 133.801L271.085 132.388L267.423 140.287L276.659 146.012L272.725 147.444L265.779 143.26ZM278.689 129.444C280.725 128.703 282.457 128.63 283.885 129.224C285.324 129.795 286.402 131.063 287.118 133.031L290.066 141.132L287.012 142.244L286.4 140.562C286.223 141.31 285.823 141.983 285.2 142.581C284.588 143.156 283.765 143.631 282.73 144.008C281.694 144.385 280.725 144.542 279.823 144.48C278.915 144.4 278.132 144.128 277.474 143.664C276.828 143.176 276.36 142.535 276.071 141.741C275.619 140.499 275.715 139.34 276.36 138.265C277.015 137.167 278.335 136.257 280.32 135.534L283.892 134.234L283.816 134.027C283.464 133.061 282.901 132.426 282.126 132.121C281.368 131.811 280.42 131.863 279.281 132.278C278.504 132.56 277.78 132.96 277.109 133.478C276.455 133.99 275.947 134.556 275.587 135.176L273.461 133.282C273.985 132.466 274.702 131.726 275.614 131.062C276.525 130.398 277.55 129.859 278.689 129.444ZM282.545 141.408C283.356 141.112 284.006 140.671 284.496 140.082C284.996 139.47 285.25 138.772 285.258 137.987L284.673 136.383L281.334 137.598C279.471 138.276 278.762 139.228 279.208 140.453C279.421 141.04 279.824 141.421 280.415 141.597C281.007 141.772 281.717 141.709 282.545 141.408ZM293.003 126.697C293.407 124.908 294.783 123.587 297.13 122.732L298.251 125.813C297.956 125.861 297.696 125.927 297.472 126.008C296.212 126.467 295.364 127.196 294.926 128.195C294.483 129.178 294.512 130.359 295.014 131.739L297.454 138.443L294.219 139.621L289.188 125.799L292.268 124.678L293.003 126.697ZM309.349 134.319C308.228 134.728 307.079 134.98 305.902 135.076C304.725 135.172 303.736 135.112 302.934 134.895L303.282 131.984C304.054 132.172 304.918 132.239 305.875 132.183C306.843 132.105 307.75 131.911 308.595 131.604C310.528 130.9 311.309 130.039 310.939 129.021C310.763 128.538 310.39 128.293 309.821 128.285C309.268 128.271 308.417 128.376 307.267 128.599C306.066 128.841 305.061 128.982 304.255 129.021C303.466 129.054 302.703 128.892 301.967 128.534C301.242 128.153 300.698 127.463 300.334 126.462C299.856 125.15 300.02 123.908 300.824 122.736C301.64 121.54 302.979 120.603 304.843 119.925C305.792 119.58 306.782 119.346 307.813 119.225C308.837 119.087 309.717 119.089 310.453 119.231L310.106 122.143C308.681 121.88 307.236 122.015 305.769 122.549C304.82 122.894 304.148 123.305 303.755 123.78C303.372 124.232 303.265 124.691 303.435 125.157C303.623 125.675 304.017 125.951 304.617 125.987C305.227 126 306.119 125.9 307.292 125.688C308.459 125.458 309.438 125.327 310.227 125.294C311.016 125.261 311.758 125.42 312.453 125.773C313.166 126.12 313.701 126.785 314.059 127.768C314.53 129.063 314.346 130.302 313.507 131.487C312.668 132.672 311.282 133.616 309.349 134.319ZM321.089 114.012C322.832 113.377 324.415 113.378 325.838 114.013C327.262 114.648 328.338 115.966 329.066 117.968L331.949 125.888L328.713 127.066L325.981 119.56C325.542 118.352 324.927 117.549 324.138 117.153C323.342 116.739 322.418 116.723 321.366 117.106C320.175 117.54 319.366 118.245 318.94 119.22C318.507 120.179 318.536 121.332 319.026 122.678L321.569 129.666L318.334 130.844L311.343 111.638L314.579 110.46L317.123 117.449C317.45 116.685 317.949 116.015 318.619 115.439C319.299 114.839 320.123 114.364 321.089 114.012ZM336.923 103.559L344.843 100.676C346.776 99.9725 348.631 99.7272 350.409 99.94C352.18 100.136 353.731 100.773 355.062 101.852C356.387 102.914 357.375 104.342 358.029 106.137C358.682 107.931 358.846 109.67 358.52 111.351C358.188 113.016 357.409 114.501 356.184 115.807C354.953 117.096 353.371 118.092 351.438 118.795L343.518 121.678L336.923 103.559ZM350.247 116.004C351.575 115.521 352.649 114.846 353.468 113.982C354.298 113.093 354.81 112.086 355.006 110.96C355.213 109.809 355.09 108.613 354.638 107.371C354.186 106.128 353.514 105.142 352.622 104.411C351.742 103.656 350.702 103.214 349.502 103.084C348.312 102.931 347.053 103.096 345.724 103.58L341.324 105.181L345.846 117.606L350.247 116.004ZM359.561 100.185L362.797 99.0075L367.828 112.83L364.592 114.007L359.561 100.185ZM360.363 97.3138C359.776 97.5273 359.218 97.5252 358.689 97.3072C358.154 97.0721 357.786 96.6784 357.585 96.1262C357.384 95.574 357.416 95.0445 357.681 94.5376C357.94 94.0135 358.363 93.6447 358.95 93.4312C359.536 93.2176 360.094 93.2198 360.623 93.4377C361.145 93.6384 361.504 94.0062 361.699 94.5411C361.906 95.1106 361.883 95.666 361.631 96.2073C361.389 96.7252 360.967 97.094 360.363 97.3138ZM380.875 108.081L375.586 104.583L373.757 110.672L370.185 111.972L373.015 102.998L365.387 98.0648L368.985 96.7553L374.024 100.051L375.766 94.2869L379.261 93.0151L376.543 101.655L384.525 106.753L380.875 108.081ZM381.881 92.0613L385.117 90.8836L390.148 104.706L386.912 105.884L381.881 92.0613ZM382.683 89.1899C382.096 89.4035 381.538 89.4013 381.01 89.1834C380.475 88.9482 380.107 88.5545 379.906 88.0023C379.705 87.4501 379.737 86.9206 380.002 86.4137C380.26 85.8896 380.683 85.5208 381.27 85.3073C381.856 85.0937 382.414 85.0959 382.943 85.3138C383.466 85.5145 383.824 85.8823 384.019 86.4172C384.226 86.9867 384.204 87.5421 383.951 88.0835C383.71 88.6013 383.287 88.9701 382.683 89.1899ZM402.43 99.3854C402.163 99.8342 401.782 100.237 401.287 100.593C400.808 100.943 400.267 101.228 399.663 101.448C398.145 102 396.827 102.031 395.709 101.538C394.592 101.046 393.757 100.041 393.205 98.5221L390.783 91.8698L388.505 92.6988L387.563 90.1104L389.841 89.2814L388.692 86.1235L391.927 84.9458L393.077 88.1037L396.778 86.7565L397.72 89.3449L394.019 90.6921L396.412 97.2668C396.657 97.9398 397.009 98.3978 397.469 98.6408C397.922 98.8666 398.46 98.8665 399.081 98.6404C399.806 98.3766 400.341 97.9669 400.686 97.4114L402.43 99.3854Z" fill="white"/>
<path d="M237.738 169.096L242.684 182.685L240.762 183.385L236.431 171.484L233.364 172.601L232.749 170.912L237.738 169.096ZM245.061 166.255C246.886 165.59 248.504 165.668 249.916 166.488C251.342 167.303 252.448 168.791 253.234 170.953C253.785 172.467 253.985 173.86 253.832 175.132C253.688 176.386 253.232 177.468 252.463 178.378C251.704 179.27 250.683 179.95 249.402 180.416C248.742 180.656 248.097 180.818 247.467 180.9C246.833 180.97 246.255 180.953 245.734 180.849L245.921 179.067C246.736 179.254 247.687 179.149 248.775 178.753C250.185 178.24 251.128 177.406 251.601 176.252C252.084 175.079 252.021 173.659 251.413 171.989L251.236 171.504C251.06 172.227 250.686 172.869 250.113 173.43C249.535 173.977 248.819 174.406 247.965 174.717C247.072 175.042 246.208 175.166 245.374 175.089C244.553 175.006 243.828 174.728 243.201 174.253C242.582 173.76 242.124 173.106 241.827 172.29C241.516 171.436 241.45 170.61 241.629 169.812C241.82 169.01 242.215 168.302 242.813 167.689C243.405 167.062 244.155 166.584 245.061 166.255ZM247.723 173.025C248.331 172.803 248.832 172.489 249.226 172.082C249.62 171.674 249.874 171.223 249.987 170.728C250.112 170.227 250.086 169.731 249.907 169.24C249.732 168.761 249.445 168.374 249.045 168.08C248.653 167.769 248.169 167.586 247.592 167.532C247.024 167.46 246.397 167.549 245.711 167.799C244.818 168.124 244.18 168.627 243.798 169.309C243.429 169.985 243.39 170.725 243.682 171.527C243.974 172.33 244.486 172.869 245.216 173.145C245.943 173.409 246.778 173.368 247.723 173.025ZM265.324 166.464C266.193 166.397 266.96 166.572 267.625 166.99C268.286 167.394 268.776 168.037 269.096 168.917C269.525 170.094 269.408 171.163 268.746 172.122C268.097 173.077 266.924 173.862 265.229 174.479L258.745 176.839L253.799 163.25L259.894 161.032C261.448 160.466 262.758 160.341 263.825 160.656C264.905 160.966 265.646 161.672 266.046 162.772C266.305 163.484 266.361 164.16 266.213 164.8C266.078 165.435 265.781 165.99 265.324 166.464ZM256.312 164.116L257.895 168.465L261.875 167.016C262.871 166.653 263.569 166.194 263.968 165.639C264.375 165.066 264.449 164.423 264.19 163.711C263.931 163 263.463 162.561 262.788 162.397C262.121 162.215 261.289 162.305 260.292 162.668L256.312 164.116ZM264.579 172.935C265.679 172.535 266.441 172.052 266.866 171.487C267.291 170.922 267.362 170.252 267.079 169.475C266.528 167.961 265.146 167.606 262.933 168.412L258.467 170.037L260.114 174.56L264.579 172.935ZM282.685 166.213L283.299 167.902L273.437 171.492L268.491 157.902L278.082 154.412L278.696 156.101L271.047 158.885L272.567 163.059L279.381 160.579L279.981 162.229L273.167 164.709L274.764 169.096L282.685 166.213ZM292.519 164.723C291.16 165.217 289.822 165.367 288.505 165.172C287.197 164.96 286.041 164.442 285.038 163.62C284.031 162.785 283.287 161.707 282.806 160.387C282.326 159.067 282.205 157.77 282.445 156.495C282.68 155.208 283.239 154.066 284.123 153.071C285.001 152.062 286.12 151.31 287.479 150.816C288.54 150.429 289.577 150.257 290.589 150.299C291.596 150.328 292.538 150.579 293.413 151.052L292.596 152.734C291.183 152.032 289.713 151.959 288.186 152.515C287.176 152.883 286.346 153.441 285.696 154.191C285.045 154.941 284.633 155.802 284.459 156.774C284.293 157.728 284.39 158.697 284.748 159.68C285.106 160.664 285.657 161.475 286.402 162.112C287.156 162.732 288.022 163.12 289.002 163.276C289.983 163.433 290.978 163.327 291.987 162.959C293.501 162.408 294.578 161.401 295.218 159.937L296.925 160.701C296.558 161.626 295.994 162.432 295.233 163.119C294.485 163.802 293.58 164.336 292.519 164.723ZM304.481 160.369C303.407 160.76 302.35 160.836 301.311 160.599C300.28 160.344 299.335 159.779 298.474 158.905C297.614 158.031 296.922 156.876 296.399 155.44C295.877 154.003 295.664 152.673 295.761 151.451C295.858 150.228 296.222 149.194 296.853 148.349C297.491 147.487 298.348 146.86 299.422 146.469C300.483 146.083 301.529 146.017 302.56 146.272C303.599 146.509 304.549 147.065 305.409 147.939C306.27 148.813 306.962 149.968 307.484 151.405C308.007 152.842 308.22 154.171 308.123 155.394C308.025 156.616 307.657 157.659 307.019 158.522C306.388 159.367 305.542 159.982 304.481 160.369ZM303.852 158.641C304.939 158.245 305.644 157.483 305.966 156.355C306.301 155.221 306.16 153.807 305.543 152.112C304.926 150.416 304.125 149.242 303.14 148.589C302.168 147.932 301.138 147.801 300.051 148.197C298.951 148.597 298.233 149.364 297.898 150.497C297.576 151.626 297.724 153.038 298.341 154.733C298.958 156.428 299.752 157.605 300.725 158.262C301.71 158.915 302.752 159.041 303.852 158.641ZM314.681 147.137C315.574 146.812 316.431 146.69 317.252 146.772C318.087 146.85 318.82 147.133 319.452 147.621C320.079 148.096 320.541 148.741 320.838 149.557C321.149 150.411 321.209 151.239 321.017 152.042C320.838 152.84 320.446 153.554 319.84 154.185C319.243 154.798 318.491 155.27 317.585 155.599C315.76 156.263 314.135 156.188 312.71 155.373C311.298 154.553 310.198 153.063 309.412 150.901C308.86 149.387 308.657 148.003 308.801 146.748C308.954 145.476 309.41 144.394 310.17 143.502C310.938 142.592 311.963 141.904 313.244 141.438C313.904 141.198 314.551 141.043 315.186 140.973C315.815 140.891 316.39 140.901 316.912 141.004L316.725 142.787C315.923 142.596 314.978 142.698 313.891 143.093C312.48 143.607 311.534 144.45 311.051 145.622C310.565 146.781 310.625 148.195 311.233 149.865C311.308 150.072 311.373 150.231 311.429 150.343C311.605 149.619 311.976 148.986 312.54 148.444C313.113 147.883 313.827 147.448 314.681 147.137ZM316.935 154.055C317.828 153.73 318.466 153.227 318.848 152.545C319.23 151.864 319.275 151.122 318.983 150.32C318.691 149.517 318.176 148.987 317.436 148.728C316.706 148.452 315.868 148.486 314.923 148.829C314.315 149.051 313.814 149.365 313.42 149.772C313.038 150.175 312.785 150.626 312.659 151.126C312.546 151.622 312.58 152.115 312.759 152.607C312.933 153.086 313.216 153.481 313.608 153.793C314.008 154.087 314.492 154.27 315.061 154.342C315.637 154.396 316.262 154.3 316.935 154.055ZM332.739 147.995L333.354 149.684L323.589 153.238L323.109 151.918L326.698 144.566C327.136 143.674 327.386 142.952 327.45 142.401C327.508 141.838 327.45 141.317 327.276 140.838C327.017 140.126 326.564 139.668 325.918 139.463C325.281 139.241 324.496 139.299 323.564 139.639C322.063 140.185 321.083 141.098 320.626 142.379L318.889 141.714C319.184 140.874 319.693 140.117 320.415 139.444C321.15 138.766 322.048 138.233 323.11 137.847C324.533 137.329 325.791 137.26 326.882 137.64C327.968 138.006 328.723 138.772 329.147 139.937C329.411 140.662 329.505 141.404 329.43 142.164C329.355 142.924 329.034 143.877 328.469 145.02L325.77 150.532L332.739 147.995ZM334.354 133.754C336.179 133.09 337.798 133.168 339.21 133.988C340.635 134.803 341.741 136.291 342.528 138.452C343.079 139.967 343.278 141.36 343.126 142.632C342.981 143.886 342.525 144.968 341.757 145.878C340.997 146.77 339.976 147.449 338.695 147.916C338.035 148.156 337.39 148.317 336.761 148.4C336.127 148.47 335.549 148.453 335.027 148.349L335.214 146.567C336.03 146.753 336.981 146.649 338.068 146.253C339.479 145.74 340.421 144.906 340.895 143.751C341.377 142.579 341.314 141.159 340.707 139.489L340.53 139.004C340.354 139.727 339.979 140.369 339.406 140.93C338.829 141.477 338.113 141.906 337.258 142.217C336.365 142.542 335.502 142.666 334.667 142.588C333.846 142.506 333.122 142.228 332.494 141.752C331.875 141.26 331.417 140.605 331.121 139.79C330.81 138.936 330.744 138.11 330.922 137.312C331.114 136.509 331.508 135.802 332.106 135.188C332.699 134.562 333.448 134.084 334.354 133.754ZM337.016 140.524C337.624 140.303 338.126 139.989 338.52 139.581C338.914 139.174 339.167 138.723 339.28 138.227C339.406 137.727 339.379 137.231 339.2 136.739C339.026 136.261 338.739 135.874 338.338 135.58C337.947 135.268 337.462 135.086 336.886 135.032C336.317 134.96 335.69 135.049 335.004 135.299C334.111 135.624 333.474 136.127 333.091 136.808C332.722 137.485 332.683 138.225 332.976 139.027C333.268 139.829 333.779 140.369 334.51 140.645C335.236 140.908 336.071 140.868 337.016 140.524Z" fill="white"/>
<path d="M246.284 209.527L247.261 212.211L250.341 211.09L249.365 208.406L246.284 209.527ZM247.668 213.328L251.529 223.939L254.61 222.817L250.748 212.207L247.668 213.328ZM265.769 218.96C271.3 216.947 272.85 213.751 271.329 209.572C269.814 205.41 266.579 203.977 261.049 205.989C255.5 208.009 253.955 211.162 255.476 215.342C257.004 219.539 260.221 220.979 265.769 218.96ZM264.779 216.24C261.411 217.466 259.663 216.755 258.719 214.161C257.781 211.585 258.652 209.942 262.039 208.71C265.425 207.477 267.155 208.194 268.086 210.752C269.024 213.328 268.148 215.014 264.779 216.24ZM274.623 210.617C275.948 214.256 279.349 214.017 284.52 212.135C289.185 210.437 292.125 208.592 290.899 205.223C289.738 202.035 286.559 202.886 281.489 204.425C277.735 205.547 276.913 205.642 276.559 204.669C276.218 203.732 276.863 203.151 280.052 201.99C283.42 200.764 284.932 200.601 285.437 201.989L288.68 200.808C287.545 197.692 284.23 197.552 279.474 199.283C274.755 201.001 272.248 202.913 273.257 205.687C274.287 208.515 276.781 208.587 282.368 206.839C286.529 205.549 287.315 205.467 287.695 206.512C288.056 207.502 287.167 208.254 283.762 209.494C279.655 210.989 278.351 210.769 277.866 209.436L274.623 210.617ZM263.957 229.611L254.806 232.942L259.396 245.552L268.547 242.221C271.808 241.034 273.938 237.974 272.377 233.687C270.817 229.399 267.218 228.424 263.957 229.611ZM266.332 239.947L261.648 241.651L259.039 234.482L263.723 232.777C266.173 231.885 268.02 231.804 269.135 234.867C270.249 237.929 268.782 239.055 266.332 239.947ZM283.878 234.009C281.824 234.757 279.999 234.788 279.041 233.22L290.498 229.05C288.741 224.222 285.011 224.008 280.976 225.477C276.671 227.044 274.203 229.737 275.626 233.646C277.042 237.538 280.754 237.982 284.789 236.513C288.716 235.084 290.881 232.848 290.6 229.89L287.537 231.004C287.156 232.367 286.003 233.236 283.878 234.009ZM281.811 227.825C283.756 227.117 285.42 226.981 286.487 228.286L278.434 231.217C278.376 229.545 279.703 228.593 281.811 227.825ZM293.303 228.987C294.536 232.374 298.509 231.52 302.598 230.031C306.687 228.543 309.199 227.037 308.111 224.047C307.082 221.218 304.214 222.14 299.959 223.341C296.204 224.402 295.606 224.497 295.364 223.831C295.141 223.218 295.891 222.701 298.809 221.638C301.673 220.596 302.869 220.406 303.19 221.288L306.289 220.161C305.226 217.242 302.136 217.775 298.137 219.231C294.354 220.608 291.301 222.311 292.311 225.085C293.242 227.643 295.661 227.17 300.425 225.742C304.239 224.619 304.763 224.49 305.058 225.3C305.36 226.129 304.898 226.542 301.566 227.755C298.125 229.007 296.797 229.001 296.384 227.866L293.303 228.987ZM307.054 211.885L308.031 214.569L311.111 213.448L310.134 210.764L307.054 211.885ZM308.437 215.686L312.299 226.296L315.379 225.175L311.517 214.565L308.437 215.686ZM326.093 209.26L326.716 210.971C325.22 210.169 323.181 210.116 320.659 211.034C317.02 212.358 315.003 214.888 316.367 218.634C317.731 222.381 320.902 223.023 324.54 221.698C327.044 220.787 328.572 219.435 329.22 217.853C330.084 220.619 329.341 222.276 326.153 223.437C323.811 224.289 321.243 224.632 319.915 224.851L320.819 227.337C321.944 227.233 324.694 226.885 327.775 225.764C331.792 224.302 334.01 221.373 332.437 217.049L329.191 208.132L326.093 209.26ZM324.72 218.716C321.819 219.771 320.155 219.459 319.447 217.513C318.739 215.568 319.813 214.259 322.713 213.203C325.614 212.148 327.26 212.466 327.968 214.412C328.676 216.358 327.62 217.66 324.72 218.716ZM341.729 203.365C339.152 204.303 337.371 205.91 336.291 207.649L335.615 205.794L332.535 206.915L336.397 217.526L339.477 216.404L337.313 210.46C337.862 208.995 339.709 207.119 341.78 206.365C344.32 205.441 345.503 206.336 346.323 208.588L348.034 213.29L351.132 212.162L349.031 206.276C347.572 202.38 344.557 202.336 341.729 203.365Z" fill="#BEBEBE"/>
<path d="M121.595 371.325L122.165 372.893L113.014 376.223L108.424 363.613L117.323 360.374L117.894 361.942L110.796 364.525L112.206 368.398L118.529 366.097L119.086 367.628L112.763 369.929L114.245 374L121.595 371.325ZM123.595 365.925L128.441 364.162L128.985 365.657L124.139 367.421L123.595 365.925ZM146.921 363.882L143.559 354.702L141.788 364.016L140.959 364.318L133.634 358.375L136.959 367.508L135.229 368.138L130.64 355.528L132.117 354.99L140.603 361.938L142.565 351.187L144.042 350.649L148.65 363.253L146.921 363.882ZM153.953 350.408C155.274 349.928 156.4 349.885 157.333 350.28C158.278 350.67 158.984 351.508 159.451 352.793L161.55 358.558L159.91 359.154L159.451 357.893C159.325 358.443 159.035 358.936 158.582 359.373C158.137 359.793 157.548 360.137 156.815 360.403C155.746 360.792 154.794 360.847 153.957 360.566C153.133 360.282 152.567 359.719 152.262 358.878C151.956 358.038 152.017 357.254 152.446 356.526C152.87 355.787 153.749 355.175 155.082 354.689L157.82 353.693L157.696 353.351C157.425 352.606 157.001 352.114 156.424 351.875C155.848 351.636 155.139 351.67 154.299 351.976C153.734 352.181 153.217 352.478 152.746 352.867C152.271 353.244 151.905 353.656 151.646 354.104L150.453 353.069C150.801 352.494 151.281 351.979 151.891 351.526C152.497 351.061 153.184 350.688 153.953 350.408ZM156.618 358.965C157.279 358.725 157.797 358.373 158.172 357.91C158.543 357.435 158.739 356.888 158.758 356.269L158.273 354.936L155.607 355.906C154.142 356.44 153.588 357.199 153.947 358.183C154.121 358.664 154.445 358.974 154.918 359.115C155.391 359.256 155.958 359.206 156.618 358.965ZM163.076 347.19L164.806 346.56L168.281 356.108L166.551 356.737L163.076 347.19ZM163.272 345.038C162.936 345.16 162.614 345.155 162.308 345.021C162.013 344.884 161.808 344.659 161.695 344.347C161.581 344.035 161.593 343.731 161.731 343.436C161.876 343.125 162.116 342.908 162.453 342.786C162.789 342.663 163.105 342.671 163.399 342.808C163.702 342.929 163.91 343.146 164.024 343.458C164.142 343.783 164.128 344.1 163.983 344.412C163.845 344.706 163.609 344.915 163.272 345.038ZM168.519 340.884L170.249 340.254L175.114 353.621L173.384 354.25L168.519 340.884Z" fill="#BEBEBE"/>
<path d="M139.568 431.635C138.307 432.093 137.065 432.233 135.843 432.052C134.629 431.854 133.557 431.374 132.626 430.611C131.691 429.836 131.001 428.836 130.555 427.611C130.109 426.386 129.998 425.183 130.22 424C130.438 422.805 130.957 421.746 131.777 420.822C132.592 419.886 133.63 419.189 134.891 418.73C135.876 418.371 136.838 418.212 137.777 418.251C138.712 418.278 139.585 418.51 140.398 418.949L139.64 420.51C138.328 419.859 136.964 419.791 135.547 420.307C134.61 420.648 133.84 421.166 133.236 421.862C132.633 422.557 132.25 423.356 132.089 424.258C131.935 425.144 132.024 426.043 132.357 426.956C132.689 427.868 133.201 428.621 133.892 429.212C134.591 429.787 135.395 430.148 136.305 430.292C137.214 430.437 138.137 430.339 139.074 429.998C140.479 429.487 141.479 428.552 142.072 427.194L143.656 427.902C143.316 428.761 142.793 429.509 142.086 430.147C141.392 430.78 140.552 431.276 139.568 431.635ZM152.168 427.008C151.219 427.353 150.29 427.453 149.381 427.308C148.471 427.163 147.667 426.803 146.968 426.228C146.276 425.636 145.76 424.872 145.419 423.935C145.078 422.999 144.985 422.087 145.138 421.202C145.3 420.3 145.684 419.507 146.292 418.823C146.896 418.128 147.672 417.607 148.621 417.262C149.57 416.916 150.493 416.818 151.39 416.968C152.296 417.101 153.094 417.463 153.785 418.055C154.484 418.63 155.004 419.386 155.345 420.323C155.686 421.259 155.776 422.179 155.615 423.081C155.461 423.966 155.082 424.757 154.479 425.453C153.887 426.144 153.117 426.662 152.168 427.008ZM151.617 425.494C152.23 425.271 152.726 424.934 153.106 424.483C153.493 424.016 153.733 423.48 153.826 422.875C153.914 422.258 153.838 421.619 153.598 420.959C153.357 420.298 153.007 419.766 152.547 419.362C152.083 418.946 151.555 418.69 150.962 418.593C150.381 418.491 149.784 418.552 149.172 418.775C148.559 418.998 148.057 419.337 147.665 419.793C147.285 420.244 147.045 420.78 146.945 421.401C146.852 422.006 146.926 422.639 147.167 423.299C147.407 423.96 147.759 424.498 148.224 424.914C148.695 425.313 149.224 425.57 149.809 425.683C150.402 425.78 151.005 425.717 151.617 425.494ZM162.866 412.077C164.079 411.636 165.169 411.64 166.135 412.091C167.109 412.525 167.843 413.421 168.337 414.778L170.337 420.272L168.608 420.902L166.68 415.605C166.343 414.681 165.868 414.065 165.253 413.758C164.638 413.452 163.916 413.449 163.088 413.751C162.151 414.092 161.513 414.637 161.174 415.386C160.83 416.123 160.844 417.002 161.215 418.023L163.005 422.941L161.276 423.57L157.801 414.023L159.458 413.419L159.983 414.861C160.152 414.241 160.482 413.693 160.975 413.214C161.479 412.731 162.109 412.352 162.866 412.077ZM180.504 415.939C180.33 416.247 180.079 416.529 179.751 416.785C179.418 417.028 179.053 417.222 178.657 417.366C177.696 417.716 176.858 417.729 176.141 417.405C175.425 417.081 174.892 416.438 174.542 415.478L172.634 410.235L171.013 410.825L170.495 409.402L172.116 408.812L171.356 406.723L173.085 406.093L173.846 408.183L176.584 407.186L177.102 408.609L174.364 409.606L176.245 414.776C176.433 415.292 176.704 415.643 177.056 415.827C177.421 416.007 177.844 416.01 178.324 415.835C178.852 415.643 179.248 415.329 179.511 414.893L180.504 415.939ZM184.568 404.178C185.889 403.697 187.016 403.654 187.949 404.049C188.893 404.44 189.6 405.278 190.067 406.563L192.166 412.327L190.526 412.924L190.067 411.663C189.941 412.212 189.651 412.705 189.198 413.142C188.753 413.563 188.164 413.906 187.431 414.173C186.362 414.562 185.41 414.616 184.573 414.336C183.749 414.051 183.183 413.488 182.877 412.648C182.571 411.807 182.633 411.023 183.062 410.296C183.486 409.556 184.365 408.944 185.698 408.459L188.436 407.462L188.312 407.12C188.041 406.375 187.617 405.884 187.04 405.645C186.464 405.406 185.755 405.439 184.914 405.745C184.35 405.951 183.833 406.248 183.362 406.637C182.887 407.014 182.52 407.426 182.262 407.874L181.069 406.839C181.417 406.263 181.896 405.749 182.507 405.296C183.113 404.83 183.8 404.458 184.568 404.178ZM187.234 412.735C187.895 412.495 188.413 412.143 188.788 411.68C189.159 411.205 189.354 410.658 189.374 410.038L188.889 408.705L186.223 409.676C184.757 410.209 184.204 410.968 184.563 411.953C184.737 412.433 185.061 412.744 185.534 412.884C186.007 413.025 186.574 412.975 187.234 412.735ZM201.421 409.081C200.448 409.435 199.501 409.542 198.579 409.401C197.67 409.256 196.865 408.896 196.166 408.321C195.463 407.734 194.941 406.972 194.6 406.035C194.259 405.098 194.171 404.185 194.337 403.295C194.498 402.393 194.883 401.6 195.491 400.917C196.107 400.216 196.901 399.689 197.874 399.335C198.738 399.021 199.57 398.915 200.37 399.018C201.181 399.118 201.893 399.43 202.506 399.955L201.499 401.28C201.032 400.933 200.535 400.726 200.008 400.66C199.481 400.593 198.947 400.658 198.406 400.855C197.782 401.082 197.268 401.426 196.864 401.886C196.472 402.341 196.226 402.88 196.126 403.501C196.033 404.106 196.107 404.739 196.347 405.399C196.592 406.072 196.947 406.616 197.411 407.032C197.882 407.431 198.415 407.679 199.008 407.776C199.613 407.869 200.227 407.802 200.852 407.574C201.392 407.378 201.843 407.084 202.205 406.694C202.566 406.305 202.814 405.827 202.948 405.261L204.564 405.611C204.432 406.407 204.09 407.11 203.536 407.719C202.991 408.312 202.285 408.766 201.421 409.081ZM214.601 403.529C214.428 403.837 214.176 404.119 213.848 404.374C213.515 404.618 213.15 404.812 212.754 404.956C211.793 405.306 210.955 405.319 210.238 404.995C209.522 404.67 208.989 404.028 208.639 403.067L206.731 397.825L205.11 398.415L204.592 396.992L206.213 396.402L205.453 394.312L207.182 393.683L207.943 395.772L210.681 394.776L211.199 396.199L208.461 397.196L210.342 402.366C210.53 402.882 210.801 403.233 211.153 403.417C211.518 403.597 211.941 403.6 212.421 403.425C212.949 403.232 213.345 402.918 213.608 402.483L214.601 403.529ZM231.843 383.605L236.433 396.215L234.955 396.753L223.967 390.103L227.389 399.507L225.588 400.162L220.998 387.552L222.475 387.015L233.464 393.664L230.042 384.261L231.843 383.605ZM245.885 392.897C244.936 393.243 244.007 393.343 243.097 393.198C242.188 393.053 241.383 392.693 240.685 392.118C239.993 391.526 239.477 390.762 239.136 389.825C238.795 388.888 238.701 387.977 238.855 387.092C239.017 386.19 239.401 385.397 240.009 384.713C240.613 384.018 241.389 383.497 242.338 383.152C243.286 382.806 244.21 382.708 245.107 382.858C246.012 382.991 246.811 383.353 247.502 383.945C248.201 384.52 248.721 385.276 249.062 386.212C249.403 387.149 249.493 388.069 249.331 388.971C249.178 389.856 248.799 390.647 248.195 391.342C247.604 392.034 246.834 392.552 245.885 392.897ZM245.334 391.384C245.947 391.161 246.443 390.824 246.823 390.373C247.21 389.906 247.45 389.37 247.543 388.765C247.631 388.148 247.555 387.509 247.315 386.848C247.074 386.188 246.724 385.656 246.264 385.252C245.8 384.836 245.272 384.58 244.679 384.483C244.098 384.381 243.501 384.442 242.888 384.665C242.276 384.888 241.774 385.227 241.382 385.682C241.002 386.133 240.762 386.67 240.662 387.291C240.569 387.896 240.643 388.529 240.883 389.189C241.124 389.85 241.476 390.388 241.94 390.804C242.412 391.203 242.941 391.46 243.526 391.573C244.119 391.67 244.722 391.607 245.334 391.384ZM255.235 389.494C254.899 389.617 254.569 389.607 254.246 389.467C253.918 389.314 253.689 389.057 253.558 388.697C253.431 388.349 253.446 388.017 253.603 387.701C253.756 387.374 254.001 387.149 254.337 387.026C254.673 386.904 254.997 386.915 255.308 387.06C255.619 387.205 255.841 387.458 255.972 387.818C256.103 388.179 256.092 388.523 255.939 388.85C255.794 389.162 255.559 389.376 255.235 389.494Z" fill="#BEBEBE"/>
<path d="M124.702 386.119L127.72 394.41L126.648 394.8L126.097 393.287C125.987 393.898 125.726 394.44 125.314 394.911C124.899 395.372 124.36 395.722 123.698 395.963C122.615 396.357 121.65 396.369 120.801 396C119.96 395.616 119.326 394.841 118.902 393.675L117.152 388.867L118.271 388.46L119.981 393.157C120.298 394.029 120.755 394.613 121.35 394.908C121.945 395.203 122.642 395.205 123.441 394.914C124.313 394.597 124.906 394.084 125.219 393.375C125.528 392.655 125.511 391.823 125.167 390.877L123.583 386.526L124.702 386.119ZM136.613 390.602C136.472 390.868 136.263 391.11 135.986 391.33C135.716 391.536 135.412 391.7 135.076 391.822C134.298 392.105 133.623 392.113 133.05 391.846C132.476 391.578 132.05 391.061 131.771 390.294L129.946 385.281L128.465 385.821L128.121 384.875L129.602 384.336L128.942 382.523L130.062 382.116L130.721 383.928L133.243 383.01L133.588 383.956L131.066 384.874L132.867 389.823C133.047 390.317 133.305 390.652 133.643 390.826C133.987 390.987 134.39 390.983 134.852 390.815C135.083 390.73 135.291 390.613 135.474 390.463C135.668 390.309 135.819 390.135 135.927 389.941L136.613 390.602ZM141.97 384.511L140.669 387.019L141.53 389.384L140.411 389.791L136.154 378.095L137.273 377.688L140.159 385.617L143.461 379.291L144.849 378.786L142.535 383.466L148.197 386.957L146.826 387.456L141.97 384.511ZM151.159 376.418C152.242 376.024 153.171 375.995 153.948 376.331C154.721 376.657 155.301 377.35 155.687 378.412L157.557 383.55L156.485 383.94L156.015 382.648C155.92 383.17 155.669 383.642 155.263 384.064C154.868 384.482 154.334 384.813 153.661 385.058C152.736 385.394 151.921 385.441 151.213 385.199C150.506 384.956 150.021 384.472 149.757 383.747C149.501 383.043 149.546 382.384 149.894 381.77C150.252 381.151 150.988 380.64 152.102 380.234L154.734 379.276L154.551 378.772C154.291 378.057 153.894 377.589 153.361 377.366C152.824 377.133 152.172 377.156 151.405 377.435C150.879 377.627 150.407 377.9 149.989 378.254C149.567 378.598 149.238 378.986 149.002 379.417L148.193 378.765C148.484 378.255 148.889 377.798 149.408 377.395C149.924 376.981 150.508 376.655 151.159 376.418ZM153.513 384.112C154.144 383.882 154.633 383.543 154.982 383.095C155.327 382.637 155.51 382.094 155.532 381.467L155.038 380.111L152.438 381.058C151.019 381.574 150.489 382.326 150.849 383.314C151.025 383.798 151.348 384.114 151.819 384.264C152.287 384.404 152.851 384.353 153.513 384.112ZM160.818 374.812C160.878 374.16 161.114 373.598 161.526 373.127C161.948 372.652 162.543 372.275 163.31 371.996L163.706 373.083L163.432 373.165C162.56 373.482 161.974 373.999 161.675 374.715C161.377 375.43 161.403 376.272 161.755 377.238L163.292 381.463L162.173 381.87L159.156 373.579L160.227 373.189L160.818 374.812ZM172.266 378.286C171.593 378.531 170.913 378.671 170.224 378.708C169.542 378.73 168.974 378.657 168.52 378.489L168.703 377.423C169.149 377.57 169.667 377.637 170.258 377.625C170.844 377.601 171.421 377.487 171.989 377.28C172.745 377.005 173.26 376.686 173.533 376.325C173.813 375.95 173.875 375.546 173.718 375.116C173.607 374.811 173.421 374.611 173.16 374.515C172.896 374.409 172.596 374.37 172.26 374.397C171.921 374.413 171.484 374.471 170.949 374.57C170.231 374.689 169.644 374.76 169.188 374.783C168.728 374.796 168.294 374.698 167.885 374.49C167.487 374.278 167.186 373.893 166.983 373.336C166.731 372.643 166.813 371.97 167.231 371.318C167.648 370.667 168.372 370.153 169.401 369.778C169.937 369.583 170.5 369.462 171.089 369.414C171.675 369.356 172.183 369.379 172.614 369.484L172.453 370.56C171.597 370.336 170.697 370.396 169.751 370.74C169.037 371 168.541 371.323 168.265 371.709C168 372.091 167.942 372.488 168.091 372.897C168.206 373.213 168.397 373.428 168.666 373.545C168.945 373.658 169.254 373.706 169.593 373.689C169.928 373.663 170.381 373.599 170.952 373.498C171.66 373.384 172.236 373.316 172.681 373.297C173.127 373.278 173.546 373.369 173.941 373.571C174.336 373.772 174.631 374.141 174.826 374.677C175.09 375.402 174.995 376.091 174.543 376.743C174.097 377.382 173.338 377.896 172.266 378.286ZM180.486 365.744C181.527 365.365 182.463 365.37 183.294 365.757C184.132 366.131 184.761 366.895 185.182 368.051L186.932 372.859L185.813 373.266L184.103 368.569C183.789 367.707 183.335 367.129 182.74 366.834C182.144 366.539 181.447 366.537 180.649 366.827C179.756 367.152 179.144 367.678 178.813 368.406C178.49 369.118 178.498 369.942 178.838 370.878L180.422 375.228L179.303 375.636L175.046 363.94L176.165 363.532L177.932 368.387C178.061 367.793 178.345 367.267 178.786 366.809C179.226 366.351 179.793 365.996 180.486 365.744ZM191.685 371.218C191.454 371.302 191.224 371.291 190.995 371.184C190.776 371.073 190.622 370.897 190.534 370.655C190.447 370.413 190.453 370.185 190.553 369.97C190.66 369.741 190.829 369.584 191.06 369.5C191.291 369.416 191.522 369.427 191.751 369.534C191.976 369.63 192.133 369.799 192.221 370.041C192.309 370.283 192.3 370.518 192.193 370.748C192.086 370.977 191.917 371.134 191.685 371.218ZM199.541 355.024L203.798 366.72L202.726 367.11L202.13 365.471C201.996 366.15 201.704 366.738 201.254 367.235C200.815 367.728 200.249 368.101 199.555 368.354C198.778 368.637 198.008 368.714 197.248 368.586C196.487 368.459 195.812 368.139 195.221 367.628C194.631 367.117 194.186 366.452 193.888 365.632C193.589 364.813 193.502 364.017 193.626 363.246C193.75 362.475 194.064 361.802 194.569 361.225C195.069 360.638 195.708 360.204 196.486 359.921C197.158 359.676 197.814 359.598 198.453 359.686C199.099 359.761 199.693 360.003 200.235 360.412L198.422 355.431L199.541 355.024ZM199.288 367.326C199.866 367.116 200.339 366.795 200.705 366.364C201.079 365.919 201.307 365.401 201.39 364.812C201.483 364.218 201.415 363.606 201.186 362.976C200.956 362.345 200.615 361.833 200.162 361.439C199.72 361.04 199.214 360.796 198.646 360.705C198.084 360.6 197.514 360.653 196.936 360.863C196.348 361.078 195.867 361.407 195.493 361.853C195.126 362.284 194.896 362.796 194.803 363.389C194.72 363.979 194.793 364.589 195.023 365.219C195.252 365.85 195.588 366.364 196.031 366.762C196.484 367.157 196.991 367.406 197.553 367.511C198.121 367.602 198.7 367.54 199.288 367.326ZM205.473 356.721L206.593 356.313L209.61 364.604L208.491 365.012L205.473 356.721ZM205.381 354.701C205.15 354.786 204.927 354.778 204.712 354.677C204.497 354.577 204.349 354.417 204.269 354.196C204.192 353.986 204.204 353.773 204.305 353.558C204.405 353.343 204.571 353.194 204.802 353.109C205.033 353.025 205.256 353.033 205.471 353.134C205.682 353.223 205.826 353.373 205.902 353.584C205.987 353.815 205.979 354.038 205.878 354.253C205.778 354.468 205.612 354.617 205.381 354.701ZM219.581 360.975L215.686 358.466L214.301 362.897L213.04 363.356L214.769 357.907L210.179 355.008L211.44 354.549L215.113 356.89L216.421 352.736L217.651 352.288L215.999 357.46L220.858 360.511L219.581 360.975ZM221.279 350.968L222.398 350.561L225.416 358.852L224.297 359.259L221.279 350.968ZM221.187 348.949C220.956 349.033 220.733 349.025 220.518 348.925C220.303 348.824 220.155 348.664 220.075 348.443C219.998 348.233 220.01 348.02 220.11 347.805C220.21 347.59 220.376 347.441 220.607 347.357C220.839 347.273 221.062 347.281 221.277 347.381C221.488 347.471 221.632 347.621 221.708 347.831C221.792 348.062 221.784 348.285 221.684 348.5C221.584 348.715 221.418 348.865 221.187 348.949ZM234.289 355.051C234.147 355.317 233.938 355.559 233.661 355.779C233.391 355.985 233.088 356.149 232.751 356.271C231.974 356.554 231.298 356.562 230.725 356.295C230.152 356.027 229.725 355.51 229.446 354.743L227.622 349.73L226.14 350.27L225.796 349.324L227.278 348.785L226.618 346.972L227.737 346.565L228.397 348.377L230.919 347.459L231.263 348.405L228.741 349.323L230.542 354.273C230.722 354.766 230.981 355.101 231.318 355.275C231.662 355.436 232.065 355.432 232.528 355.264C232.759 355.179 232.966 355.062 233.149 354.912C233.343 354.758 233.494 354.585 233.602 354.391L234.289 355.051ZM244.389 350.804L244.756 351.812L237.017 354.629L236.724 353.825L239.676 347.664C240.048 346.886 240.259 346.256 240.309 345.773C240.366 345.276 240.318 344.818 240.165 344.397C239.928 343.746 239.519 343.324 238.937 343.131C238.362 342.924 237.659 342.971 236.829 343.273C235.536 343.744 234.682 344.519 234.266 345.599L233.209 345.198C233.457 344.536 233.862 343.949 234.424 343.435C234.997 342.917 235.704 342.505 236.545 342.199C237.669 341.789 238.655 341.734 239.501 342.033C240.354 342.317 240.949 342.922 241.286 343.847C241.493 344.414 241.565 345.006 241.504 345.624C241.443 346.241 241.185 347.019 240.73 347.958L238.321 353.012L244.389 350.804ZM252.128 349.237C251.276 349.546 250.432 349.598 249.595 349.391C248.769 349.18 248.013 348.723 247.329 348.02C246.652 347.303 246.104 346.371 245.687 345.226C245.271 344.08 245.093 343.02 245.155 342.046C245.223 341.057 245.506 340.216 246.004 339.523C246.512 338.827 247.192 338.323 248.043 338.014C248.894 337.704 249.733 337.654 250.559 337.865C251.396 338.072 252.159 338.533 252.847 339.246C253.531 339.949 254.082 340.873 254.499 342.019C254.916 343.164 255.09 344.231 255.021 345.22C254.949 346.198 254.659 347.036 254.151 347.733C253.653 348.425 252.979 348.927 252.128 349.237ZM251.749 348.196C252.39 347.963 252.887 347.58 253.24 347.046C253.604 346.509 253.799 345.85 253.823 345.067C253.848 344.285 253.684 343.41 253.332 342.443C252.98 341.476 252.544 340.701 252.022 340.118C251.5 339.534 250.927 339.154 250.303 338.976C249.69 338.795 249.062 338.821 248.421 339.054C247.78 339.287 247.278 339.672 246.914 340.209C246.561 340.743 246.372 341.401 246.347 342.183C246.323 342.966 246.486 343.84 246.838 344.807C247.19 345.774 247.627 346.549 248.149 347.132C248.67 347.716 249.238 348.099 249.852 348.28C250.475 348.457 251.108 348.43 251.749 348.196ZM258.719 334.235L262.735 345.269L261.6 345.682L257.952 335.657L255.351 336.603L254.984 335.594L258.719 334.235ZM266.335 331.356C267.796 330.824 269.091 330.9 270.22 331.584C271.346 332.257 272.228 333.471 272.867 335.226C273.314 336.456 273.483 337.572 273.372 338.577C273.262 339.581 272.908 340.441 272.313 341.158C271.713 341.864 270.908 342.401 269.9 342.768C268.807 343.166 267.862 343.284 267.065 343.121L267.189 342.041C267.841 342.196 268.619 342.11 269.522 341.781C270.741 341.337 271.558 340.605 271.972 339.586C272.383 338.556 272.32 337.305 271.785 335.834C271.686 335.561 271.561 335.267 271.411 334.953C271.355 335.651 271.09 336.278 270.613 336.832C270.133 337.376 269.504 337.789 268.726 338.072C268.001 338.336 267.305 338.435 266.638 338.368C265.982 338.297 265.406 338.073 264.911 337.693C264.412 337.304 264.042 336.778 263.801 336.116C263.556 335.443 263.503 334.79 263.642 334.157C263.78 333.523 264.083 332.967 264.551 332.487C265.026 331.993 265.62 331.616 266.335 331.356ZM268.549 337.047C269.106 336.845 269.557 336.562 269.901 336.199C270.255 335.832 270.486 335.42 270.594 334.965C270.702 334.509 270.673 334.055 270.509 333.603C270.356 333.183 270.099 332.836 269.738 332.563C269.387 332.286 268.951 332.117 268.429 332.057C267.907 331.997 267.342 332.078 266.732 332.3C265.934 332.591 265.362 333.049 265.019 333.674C264.682 334.284 264.645 334.952 264.909 335.677C265.173 336.402 265.63 336.89 266.281 337.141C266.942 337.389 267.698 337.357 268.549 337.047ZM281.441 325.858C282.85 325.345 284.212 325.182 285.53 325.369C286.854 325.542 288.019 326.046 289.026 326.881C290.028 327.707 290.776 328.797 291.27 330.153C291.755 331.487 291.905 332.617 291.718 333.542C291.527 334.456 291.022 335.062 290.202 335.361C289.687 335.548 289.211 335.549 288.775 335.363C288.348 335.173 288.022 334.815 287.795 334.291C287.679 334.952 287.403 335.535 286.968 336.038C286.528 336.531 285.962 336.904 285.268 337.156C284.533 337.424 283.802 337.494 283.077 337.365C282.359 337.222 281.713 336.903 281.141 336.41C280.579 335.912 280.156 335.274 279.873 334.497C279.59 333.719 279.506 332.964 279.62 332.233C279.741 331.486 280.033 330.833 280.495 330.272C280.968 329.707 281.572 329.291 282.308 329.023C282.98 328.778 283.638 328.705 284.281 328.805C284.931 328.889 285.514 329.135 286.031 329.542L285.452 327.95L286.476 327.577L288.651 333.551C288.804 333.972 289.004 334.244 289.251 334.368C289.499 334.492 289.77 334.501 290.064 334.393C290.558 334.214 290.84 333.778 290.909 333.086C290.989 332.391 290.838 331.517 290.456 330.467C290.012 329.248 289.349 328.275 288.466 327.549C287.579 326.813 286.548 326.367 285.373 326.212C284.208 326.053 282.995 326.202 281.734 326.661C280.462 327.124 279.43 327.803 278.638 328.699C277.852 329.58 277.361 330.603 277.167 331.769C276.968 332.924 277.093 334.116 277.54 335.346C277.988 336.575 278.656 337.576 279.543 338.348C280.442 339.116 281.472 339.592 282.634 339.776C283.806 339.956 285.023 339.816 286.284 339.357C286.777 339.178 287.271 338.932 287.765 338.622C288.27 338.307 288.7 337.954 289.058 337.562L289.607 338.237C289.239 338.633 288.779 339.003 288.225 339.347C287.683 339.687 287.133 339.959 286.576 340.161C285.147 340.681 283.77 340.838 282.445 340.63C281.119 340.422 279.95 339.89 278.936 339.033C277.929 338.162 277.174 337.038 276.673 335.661C276.169 334.274 276.031 332.932 276.261 331.634C276.487 330.326 277.048 329.17 277.944 328.166C278.846 327.147 280.012 326.378 281.441 325.858ZM285.077 336.191C285.645 335.984 286.107 335.667 286.463 335.24C286.819 334.813 287.043 334.315 287.133 333.747C287.22 333.168 287.149 332.563 286.919 331.932C286.693 331.312 286.363 330.814 285.928 330.436C285.49 330.049 284.999 329.811 284.455 329.723C283.907 329.625 283.35 329.679 282.783 329.886C282.205 330.096 281.732 330.417 281.365 330.848C281.009 331.275 280.786 331.773 280.695 332.341C280.615 332.906 280.688 333.498 280.914 334.118C281.139 334.738 281.466 335.244 281.894 335.636C282.329 336.013 282.822 336.256 283.373 336.365C283.931 336.459 284.499 336.401 285.077 336.191ZM300.683 322.067L300.012 331.701L298.862 332.12L292.171 325.165L293.338 324.741L299.013 330.672L299.58 322.469L300.683 322.067ZM303.835 320.92L304.955 320.513L307.972 328.804L306.853 329.211L303.835 320.92ZM303.743 318.901C303.512 318.985 303.289 318.977 303.074 318.877C302.859 318.776 302.711 318.616 302.631 318.395C302.554 318.185 302.566 317.972 302.666 317.757C302.767 317.542 302.932 317.393 303.164 317.309C303.395 317.225 303.618 317.233 303.833 317.333C304.044 317.423 304.188 317.573 304.264 317.783C304.349 318.014 304.34 318.237 304.24 318.452C304.14 318.667 303.974 318.817 303.743 318.901ZM316.845 325.003C316.704 325.269 316.495 325.511 316.218 325.731C315.947 325.937 315.644 326.101 315.308 326.223C314.53 326.506 313.855 326.514 313.281 326.247C312.708 325.979 312.282 325.462 312.003 324.695L310.178 319.682L308.696 320.222L308.352 319.276L309.834 318.737L309.174 316.924L310.293 316.517L310.953 318.329L313.475 317.411L313.819 318.357L311.297 319.275L313.099 324.224C313.278 324.718 313.537 325.053 313.874 325.227C314.218 325.388 314.622 325.384 315.084 325.216C315.315 325.131 315.522 325.014 315.706 324.864C315.9 324.71 316.051 324.536 316.158 324.343L316.845 325.003ZM322.893 323.462C322.221 323.707 321.54 323.847 320.851 323.884C320.169 323.906 319.601 323.833 319.147 323.665L319.33 322.599C319.777 322.746 320.295 322.813 320.885 322.801C321.472 322.777 322.049 322.663 322.617 322.456C323.373 322.181 323.888 321.862 324.161 321.501C324.441 321.126 324.503 320.722 324.346 320.292C324.235 319.987 324.049 319.787 323.788 319.691C323.523 319.585 323.223 319.546 322.888 319.573C322.549 319.589 322.112 319.647 321.577 319.746C320.858 319.865 320.271 319.936 319.816 319.959C319.356 319.972 318.922 319.874 318.513 319.666C318.114 319.454 317.814 319.069 317.611 318.512C317.359 317.819 317.441 317.146 317.858 316.494C318.276 315.843 318.999 315.329 320.029 314.954C320.565 314.759 321.128 314.638 321.717 314.59C322.303 314.532 322.811 314.555 323.242 314.66L323.08 315.736C322.225 315.512 321.325 315.572 320.379 315.916C319.664 316.176 319.169 316.499 318.893 316.885C318.628 317.267 318.569 317.664 318.719 318.073C318.833 318.389 319.025 318.604 319.294 318.721C319.573 318.834 319.882 318.882 320.221 318.865C320.556 318.839 321.009 318.775 321.579 318.674C322.287 318.56 322.864 318.492 323.309 318.473C323.754 318.454 324.174 318.545 324.569 318.747C324.963 318.948 325.258 319.317 325.453 319.853C325.717 320.578 325.623 321.267 325.17 321.919C324.724 322.558 323.965 323.072 322.893 323.462ZM334.113 318.718C333.972 318.984 333.763 319.226 333.486 319.446C333.215 319.652 332.912 319.816 332.576 319.938C331.798 320.221 331.123 320.229 330.549 319.962C329.976 319.694 329.55 319.177 329.271 318.41L327.446 313.397L325.964 313.937L325.62 312.991L327.102 312.452L326.442 310.639L327.561 310.232L328.221 312.044L330.743 311.126L331.087 312.072L328.565 312.99L330.367 317.939C330.546 318.433 330.805 318.768 331.142 318.942C331.486 319.103 331.889 319.099 332.352 318.931C332.583 318.846 332.79 318.729 332.974 318.579C333.168 318.425 333.319 318.251 333.426 318.057L334.113 318.718ZM342.364 306.897L345.382 315.188L344.31 315.578L343.759 314.065C343.648 314.676 343.387 315.217 342.976 315.689C342.56 316.149 342.021 316.5 341.359 316.741C340.277 317.135 339.312 317.147 338.463 316.778C337.621 316.394 336.988 315.619 336.564 314.452L334.814 309.645L335.933 309.237L337.643 313.935C337.96 314.807 338.416 315.39 339.012 315.685C339.607 315.981 340.304 315.983 341.103 315.692C341.975 315.375 342.567 314.861 342.881 314.152C343.19 313.433 343.172 312.6 342.828 311.654L341.245 307.304L342.364 306.897ZM353.401 299.024L357.658 310.719L356.587 311.11L355.99 309.47C355.856 310.15 355.565 310.738 355.115 311.235C354.675 311.728 354.109 312.101 353.415 312.353C352.638 312.636 351.869 312.714 351.108 312.586C350.348 312.458 349.672 312.139 349.081 311.628C348.491 311.117 348.046 310.451 347.748 309.632C347.45 308.812 347.363 308.017 347.487 307.246C347.611 306.475 347.925 305.801 348.429 305.225C348.929 304.638 349.568 304.203 350.346 303.92C351.019 303.675 351.674 303.597 352.314 303.686C352.96 303.76 353.553 304.002 354.095 304.412L352.282 299.431L353.401 299.024ZM353.149 311.325C353.726 311.115 354.199 310.794 354.566 310.363C354.939 309.918 355.167 309.401 355.25 308.811C355.344 308.218 355.276 307.606 355.046 306.975C354.817 306.345 354.475 305.832 354.022 305.438C353.58 305.04 353.074 304.795 352.506 304.705C351.944 304.6 351.374 304.652 350.796 304.863C350.208 305.077 349.727 305.407 349.353 305.852C348.987 306.283 348.757 306.795 348.663 307.389C348.58 307.978 348.653 308.588 348.883 309.219C349.112 309.849 349.448 310.364 349.891 310.762C350.344 311.156 350.851 311.406 351.413 311.511C351.982 311.601 352.56 311.54 353.149 311.325ZM368.188 302.585L361.252 305.109C361.629 305.948 362.215 306.526 363.009 306.844C363.799 307.152 364.651 307.139 365.565 306.806C366.08 306.619 366.521 306.357 366.886 306.022C367.248 305.676 367.522 305.267 367.707 304.795L368.602 305.29C368.394 305.866 368.054 306.37 367.582 306.804C367.119 307.234 366.557 307.57 365.895 307.811C365.044 308.121 364.222 308.217 363.43 308.101C362.645 307.97 361.952 307.651 361.351 307.144C360.749 306.637 360.302 305.979 360.007 305.17C359.713 304.361 359.622 303.572 359.736 302.805C359.86 302.034 360.161 301.359 360.641 300.78C361.131 300.197 361.759 299.766 362.526 299.487C363.293 299.208 364.047 299.136 364.786 299.271C365.526 299.407 366.186 299.732 366.766 300.246C367.342 300.751 367.779 301.413 368.078 302.232L368.188 302.585ZM362.876 300.448C362.078 300.739 361.499 301.241 361.14 301.955C360.787 302.654 360.724 303.427 360.948 304.274L366.828 302.134C366.456 301.341 365.905 300.792 365.175 300.486C364.452 300.166 363.685 300.154 362.876 300.448ZM374.624 295.083C375.665 294.705 376.6 294.709 377.432 295.097C378.27 295.47 378.899 296.235 379.32 297.391L381.07 302.198L379.951 302.606L378.241 297.908C377.927 297.047 377.473 296.468 376.877 296.173C376.282 295.878 375.585 295.876 374.787 296.167C373.893 296.492 373.282 297.018 372.951 297.745C372.628 298.458 372.636 299.282 372.976 300.217L374.56 304.568L373.441 304.975L370.423 296.684L371.495 296.294L372.051 297.823C372.172 297.208 372.451 296.666 372.888 296.197C373.331 295.715 373.91 295.344 374.624 295.083ZM389.867 298.425C389.726 298.691 389.516 298.934 389.239 299.153C388.969 299.359 388.666 299.523 388.33 299.645C387.552 299.928 386.876 299.936 386.303 299.669C385.73 299.401 385.304 298.884 385.024 298.117L383.2 293.105L381.718 293.644L381.374 292.698L382.856 292.159L382.196 290.346L383.315 289.939L383.975 291.752L386.497 290.834L386.841 291.779L384.319 292.697L386.121 297.647C386.3 298.141 386.559 298.475 386.896 298.65C387.24 298.81 387.643 298.806 388.106 298.638C388.337 298.554 388.544 298.437 388.728 298.287C388.921 298.133 389.072 297.959 389.18 297.765L389.867 298.425ZM393.957 297.597C393.726 297.681 393.496 297.67 393.266 297.563C393.047 297.452 392.894 297.276 392.806 297.034C392.718 296.792 392.724 296.564 392.825 296.349C392.931 296.12 393.101 295.963 393.332 295.879C393.563 295.795 393.793 295.806 394.022 295.913C394.248 296.01 394.405 296.179 394.493 296.42C394.581 296.662 394.571 296.897 394.464 297.127C394.357 297.356 394.188 297.513 393.957 297.597ZM398.748 286.303C399.831 285.909 400.76 285.88 401.537 286.216C402.31 286.542 402.89 287.235 403.276 288.297L405.146 293.435L404.074 293.825L403.604 292.533C403.509 293.055 403.258 293.528 402.852 293.949C402.457 294.367 401.923 294.698 401.25 294.943C400.325 295.279 399.509 295.326 398.802 295.084C398.095 294.841 397.61 294.358 397.346 293.632C397.09 292.928 397.135 292.269 397.483 291.655C397.841 291.036 398.577 290.525 399.691 290.119L402.323 289.161L402.14 288.657C401.879 287.942 401.483 287.474 400.95 287.251C400.413 287.018 399.761 287.041 398.994 287.321C398.468 287.512 397.996 287.785 397.578 288.139C397.156 288.483 396.827 288.871 396.591 289.302L395.782 288.65C396.073 288.14 396.478 287.683 396.997 287.28C397.513 286.866 398.097 286.54 398.748 286.303ZM401.102 293.997C401.733 293.767 402.222 293.428 402.571 292.98C402.916 292.522 403.099 291.979 403.121 291.352L402.627 289.996L400.026 290.943C398.608 291.459 398.078 292.212 398.438 293.199C398.614 293.683 398.937 293.999 399.408 294.149C399.875 294.289 400.44 294.238 401.102 293.997ZM413.258 290.572C412.438 290.87 411.638 290.959 410.856 290.839C410.085 290.715 409.399 290.4 408.798 289.893C408.193 289.375 407.743 288.712 407.449 287.902C407.154 287.093 407.074 286.301 407.209 285.526C407.343 284.752 407.666 284.069 408.177 283.478C408.698 282.884 409.369 282.437 410.189 282.139C410.903 281.879 411.59 281.79 412.251 281.871C412.918 281.937 413.511 282.179 414.032 282.597L413.403 283.468C412.981 283.158 412.523 282.979 412.03 282.933C411.533 282.875 411.038 282.937 410.544 283.116C409.945 283.334 409.454 283.668 409.07 284.117C408.693 284.552 408.457 285.066 408.364 285.659C408.281 286.249 408.354 286.859 408.584 287.489C408.817 288.13 409.155 288.65 409.597 289.048C410.046 289.432 410.557 289.675 411.129 289.776C411.708 289.863 412.297 289.797 412.896 289.579C413.39 289.399 413.811 289.133 414.159 288.78C414.506 288.428 414.742 287.997 414.866 287.488L415.908 287.751C415.778 288.405 415.48 288.978 415.016 289.468C414.548 289.948 413.962 290.316 413.258 290.572ZM420.698 287.864C420.467 287.948 420.236 287.937 420.007 287.83C419.788 287.719 419.635 287.543 419.547 287.301C419.459 287.06 419.465 286.831 419.565 286.616C419.672 286.387 419.841 286.23 420.073 286.146C420.304 286.062 420.534 286.073 420.763 286.18C420.989 286.277 421.146 286.446 421.234 286.687C421.322 286.929 421.312 287.165 421.205 287.394C421.098 287.623 420.929 287.78 420.698 287.864ZM422.458 277.745L423.577 277.338L426.595 285.629L425.475 286.036L422.458 277.745ZM422.365 275.726C422.134 275.81 421.911 275.802 421.696 275.702C421.481 275.601 421.333 275.441 421.253 275.22C421.177 275.01 421.189 274.797 421.289 274.582C421.389 274.367 421.555 274.218 421.786 274.134C422.017 274.05 422.24 274.058 422.455 274.158C422.666 274.248 422.81 274.398 422.887 274.608C422.971 274.839 422.963 275.062 422.863 275.277C422.762 275.492 422.597 275.642 422.365 275.726ZM432.469 274.03C433.509 273.651 434.445 273.656 435.276 274.043C436.114 274.417 436.743 275.181 437.164 276.337L438.914 281.145L437.795 281.552L436.085 276.855C435.771 275.993 435.317 275.415 434.722 275.12C434.126 274.825 433.429 274.823 432.631 275.113C431.738 275.438 431.126 275.964 430.795 276.692C430.472 277.404 430.48 278.229 430.821 279.164L432.404 283.514L431.285 283.922L428.267 275.63L429.339 275.24L429.895 276.769C430.017 276.154 430.295 275.612 430.732 275.144C431.175 274.661 431.754 274.29 432.469 274.03Z" fill="white"/>
<path d="M146.02 448.023L143.088 449.09L144.132 451.959L143.139 452.32L142.095 449.451L139.163 450.518L138.824 449.588L141.756 448.521L140.706 445.637L141.699 445.275L142.749 448.16L145.681 447.093L146.02 448.023ZM150.744 439.413C152.204 438.881 153.499 438.957 154.629 439.641C155.755 440.314 156.637 441.528 157.275 443.283C157.723 444.513 157.891 445.63 157.781 446.634C157.67 447.638 157.317 448.498 156.721 449.215C156.121 449.921 155.317 450.458 154.308 450.825C153.215 451.223 152.271 451.341 151.474 451.179L151.598 450.098C152.25 450.254 153.027 450.167 153.931 449.838C155.15 449.394 155.967 448.663 156.381 447.643C156.792 446.613 156.729 445.362 156.194 443.891C156.094 443.618 155.969 443.324 155.819 443.01C155.764 443.708 155.498 444.335 155.022 444.889C154.541 445.433 153.912 445.846 153.135 446.129C152.41 446.393 151.714 446.492 151.047 446.425C150.39 446.355 149.815 446.13 149.32 445.751C148.821 445.361 148.451 444.835 148.21 444.173C147.965 443.501 147.912 442.848 148.05 442.214C148.189 441.581 148.492 441.024 148.96 440.544C149.434 440.05 150.029 439.673 150.744 439.413ZM152.958 445.105C153.515 444.902 153.965 444.619 154.309 444.256C154.664 443.889 154.895 443.478 155.002 443.022C155.11 442.566 155.082 442.112 154.918 441.66C154.765 441.24 154.507 440.893 154.146 440.62C153.796 440.343 153.359 440.175 152.838 440.115C152.316 440.055 151.75 440.135 151.141 440.357C150.342 440.648 149.771 441.106 149.427 441.731C149.09 442.341 149.054 443.009 149.318 443.734C149.581 444.459 150.039 444.947 150.689 445.198C151.351 445.446 152.107 445.414 152.958 445.105ZM161.551 435.587L165.567 446.62L164.432 447.034L160.783 437.009L158.182 437.955L157.815 436.946L161.551 435.587ZM168.174 440.281L172.304 438.778L172.659 439.755L168.529 441.258L168.174 440.281ZM176.761 429.943C178.222 429.412 179.517 429.488 180.646 430.172C181.772 430.845 182.654 432.059 183.293 433.814C183.74 435.043 183.909 436.16 183.798 437.164C183.688 438.168 183.335 439.029 182.739 439.746C182.139 440.452 181.335 440.989 180.326 441.356C179.233 441.753 178.288 441.871 177.491 441.709L177.616 440.628C178.267 440.784 179.045 440.697 179.949 440.368C181.168 439.925 181.984 439.193 182.399 438.174C182.809 437.144 182.747 435.893 182.211 434.422C182.112 434.149 181.987 433.855 181.837 433.54C181.782 434.239 181.516 434.865 181.039 435.42C180.559 435.963 179.93 436.377 179.152 436.66C178.427 436.924 177.731 437.022 177.064 436.956C176.408 436.885 175.832 436.66 175.337 436.281C174.838 435.891 174.468 435.366 174.227 434.704C173.983 434.031 173.929 433.378 174.068 432.745C174.206 432.111 174.509 431.554 174.977 431.075C175.452 430.581 176.047 430.204 176.761 429.943ZM178.975 435.635C179.532 435.432 179.983 435.149 180.327 434.786C180.681 434.419 180.912 434.008 181.02 433.552C181.128 433.096 181.099 432.643 180.935 432.191C180.782 431.77 180.525 431.424 180.164 431.151C179.813 430.874 179.377 430.705 178.855 430.645C178.333 430.585 177.768 430.666 177.158 430.888C176.36 431.178 175.789 431.636 175.445 432.261C175.108 432.872 175.071 433.54 175.335 434.265C175.599 434.99 176.056 435.478 176.707 435.729C177.368 435.976 178.124 435.945 178.975 435.635ZM190.724 429.984C191.449 429.721 192.14 429.624 192.796 429.694C193.463 429.761 194.046 429.989 194.545 430.379C195.04 430.758 195.408 431.279 195.649 431.941C195.894 432.613 195.947 433.266 195.808 433.9C195.67 434.533 195.364 435.097 194.889 435.591C194.421 436.071 193.83 436.441 193.115 436.701C191.654 437.232 190.361 437.162 189.236 436.488C188.106 435.805 187.222 434.585 186.583 432.83C186.136 431.601 185.967 430.484 186.078 429.48C186.188 428.476 186.543 427.621 187.143 426.914C187.739 426.198 188.542 425.656 189.55 425.288C190.643 424.891 191.588 424.773 192.385 424.935L192.261 426.016C191.609 425.86 190.831 425.947 189.928 426.276C188.709 426.719 187.894 427.456 187.483 428.486C187.069 429.506 187.13 430.751 187.665 432.222C187.761 432.485 187.885 432.779 188.039 433.104C188.095 432.405 188.362 431.784 188.843 431.24C189.319 430.686 189.946 430.267 190.724 429.984ZM192.718 435.756C193.516 435.466 194.084 435.015 194.421 434.405C194.765 433.78 194.805 433.105 194.541 432.379C194.277 431.654 193.815 431.168 193.153 430.921C192.503 430.67 191.752 430.699 190.901 431.009C190.344 431.212 189.888 431.497 189.534 431.864C189.19 432.227 188.964 432.636 188.856 433.092C188.748 433.548 188.777 434.002 188.941 434.453C189.094 434.874 189.346 435.222 189.697 435.499C190.058 435.773 190.499 435.939 191.021 435.999C191.543 436.059 192.108 435.978 192.718 435.756ZM201.906 425.915C202.631 425.651 203.321 425.554 203.978 425.625C204.645 425.691 205.228 425.919 205.726 426.309C206.221 426.688 206.589 427.209 206.83 427.871C207.075 428.543 207.128 429.196 206.99 429.83C206.852 430.463 206.545 431.027 206.07 431.521C205.602 432.001 205.011 432.371 204.297 432.631C202.836 433.163 201.543 433.092 200.417 432.419C199.288 431.735 198.404 430.516 197.765 428.761C197.317 427.531 197.149 426.414 197.259 425.41C197.37 424.406 197.725 423.551 198.325 422.845C198.921 422.128 199.723 421.586 200.732 421.219C201.825 420.821 202.77 420.703 203.567 420.865L203.442 421.946C202.791 421.79 202.013 421.877 201.109 422.206C199.89 422.65 199.075 423.387 198.665 424.417C198.251 425.436 198.311 426.682 198.847 428.153C198.942 428.415 199.067 428.709 199.221 429.034C199.276 428.336 199.544 427.714 200.024 427.171C200.501 426.616 201.128 426.198 201.906 425.915ZM203.899 431.687C204.698 431.396 205.266 430.945 205.603 430.335C205.947 429.71 205.987 429.035 205.723 428.31C205.459 427.585 204.996 427.099 204.335 426.851C203.684 426.6 202.933 426.63 202.082 426.939C201.525 427.142 201.07 427.427 200.715 427.794C200.371 428.157 200.146 428.566 200.038 429.022C199.93 429.478 199.958 429.932 200.123 430.384C200.276 430.804 200.528 431.153 200.878 431.43C201.24 431.703 201.681 431.869 202.203 431.929C202.724 431.989 203.29 431.909 203.899 431.687ZM215.135 422.028C215.913 422.007 216.57 422.16 217.106 422.489C217.652 422.813 218.044 423.301 218.281 423.953C218.515 424.594 218.546 425.219 218.375 425.829C218.2 426.428 217.835 426.977 217.279 427.477C216.73 427.963 216.019 428.364 215.147 428.682C213.823 429.164 212.68 429.259 211.716 428.966C210.753 428.674 210.094 428.04 209.738 427.062C209.497 426.4 209.473 425.778 209.666 425.197C209.865 424.6 210.27 424.06 210.879 423.577C210.232 423.563 209.686 423.404 209.243 423.101C208.795 422.788 208.468 422.348 208.262 421.78C207.937 420.887 208.025 420.052 208.528 419.274C209.041 418.492 209.885 417.887 211.062 417.459C211.84 417.176 212.562 417.05 213.228 417.081C213.9 417.098 214.48 417.268 214.966 417.591C215.453 417.914 215.803 418.369 216.017 418.958C216.224 419.525 216.251 420.075 216.099 420.606C215.944 421.127 215.622 421.601 215.135 422.028ZM209.408 421.399C209.63 422.008 210.048 422.404 210.661 422.585C211.275 422.767 212.007 422.702 212.858 422.392C213.709 422.083 214.311 421.661 214.665 421.128C215.029 420.591 215.102 420.023 214.884 419.424C214.658 418.804 214.228 418.407 213.593 418.233C212.97 418.056 212.242 418.118 211.412 418.42C210.572 418.726 209.969 419.148 209.606 419.685C209.252 420.218 209.186 420.789 209.408 421.399ZM214.797 427.72C215.774 427.365 216.464 426.888 216.865 426.289C217.276 425.687 217.358 425.045 217.109 424.362C216.861 423.679 216.387 423.244 215.689 423.058C214.997 422.858 214.162 422.935 213.185 423.291C212.218 423.643 211.529 424.12 211.118 424.722C210.713 425.309 210.634 425.945 210.883 426.628C211.135 427.321 211.608 427.768 212.299 427.969C212.987 428.159 213.82 428.076 214.797 427.72ZM226.98 424.375C226.129 424.685 225.285 424.736 224.448 424.529C223.621 424.318 222.866 423.861 222.182 423.158C221.504 422.441 220.957 421.51 220.54 420.364C220.123 419.219 219.945 418.159 220.007 417.184C220.076 416.195 220.359 415.354 220.856 414.662C221.364 413.965 222.044 413.462 222.895 413.152C223.746 412.842 224.585 412.793 225.412 413.004C226.249 413.211 227.011 413.671 227.699 414.384C228.384 415.087 228.934 416.012 229.351 417.157C229.768 418.302 229.942 419.37 229.874 420.358C229.801 421.337 229.511 422.174 229.003 422.871C228.506 423.564 227.831 424.065 226.98 424.375ZM226.601 423.335C227.242 423.101 227.74 422.718 228.093 422.185C228.457 421.648 228.651 420.988 228.676 420.205C228.7 419.423 228.537 418.548 228.185 417.582C227.833 416.615 227.396 415.84 226.874 415.256C226.352 414.672 225.779 414.292 225.156 414.114C224.542 413.933 223.915 413.959 223.274 414.192C222.633 414.426 222.13 414.811 221.767 415.348C221.413 415.881 221.224 416.539 221.2 417.321C221.175 418.104 221.339 418.979 221.691 419.945C222.042 420.912 222.479 421.687 223.001 422.271C223.523 422.854 224.091 423.237 224.704 423.418C225.328 423.596 225.96 423.568 226.601 423.335ZM235.863 413.894C237.042 413.537 238.034 413.532 238.84 413.882C239.652 414.217 240.223 414.836 240.552 415.74C240.781 416.371 240.833 416.988 240.708 417.593C240.58 418.187 240.267 418.735 239.772 419.237C239.276 419.739 238.597 420.147 237.735 420.46C236.937 420.751 236.134 420.9 235.328 420.908C234.528 420.902 233.835 420.761 233.247 420.487L233.472 419.388C233.977 419.633 234.579 419.765 235.276 419.785C235.97 419.794 236.663 419.672 237.357 419.42C238.261 419.091 238.889 418.642 239.241 418.074C239.59 417.495 239.638 416.858 239.385 416.165C239.137 415.482 238.695 415.036 238.059 414.827C237.424 414.618 236.607 414.695 235.609 415.058L234.82 415.345L234.516 414.509L236.18 409.566L230.537 411.62L230.17 410.611L237.263 408.03L237.556 408.833L235.863 413.894ZM253.203 411.439L250.996 412.242L252.052 415.142L250.917 415.555L249.862 412.655L243.635 414.921L243.337 414.102L246.523 404.659L247.784 404.2L244.734 413.379L249.526 411.635L248.597 409.081L249.7 408.68L250.629 411.233L252.836 410.43L253.203 411.439ZM259.045 405.118C259.77 404.854 260.461 404.757 261.117 404.828C261.784 404.894 262.367 405.122 262.866 405.512C263.361 405.891 263.729 406.412 263.97 407.074C264.214 407.746 264.268 408.399 264.129 409.033C263.991 409.666 263.684 410.23 263.21 410.724C262.742 411.204 262.15 411.574 261.436 411.834C259.975 412.366 258.682 412.295 257.556 411.622C256.427 410.938 255.543 409.719 254.904 407.964C254.456 406.734 254.288 405.617 254.399 404.613C254.509 403.609 254.864 402.754 255.464 402.048C256.06 401.331 256.862 400.789 257.871 400.422C258.964 400.024 259.909 399.906 260.706 400.068L260.581 401.149C259.93 400.993 259.152 401.08 258.248 401.409C257.029 401.853 256.215 402.59 255.804 403.62C255.39 404.639 255.45 405.885 255.986 407.356C256.081 407.618 256.206 407.912 256.36 408.237C256.415 407.539 256.683 406.917 257.164 406.374C257.64 405.819 258.267 405.401 259.045 405.118ZM261.039 410.89C261.837 410.599 262.405 410.148 262.742 409.538C263.086 408.913 263.126 408.238 262.862 407.513C262.598 406.788 262.135 406.302 261.474 406.054C260.824 405.803 260.073 405.833 259.221 406.142C258.664 406.345 258.209 406.63 257.854 406.997C257.511 407.36 257.285 407.77 257.177 408.225C257.069 408.681 257.097 409.135 257.262 409.587C257.415 410.007 257.667 410.356 258.017 410.633C258.379 410.906 258.82 411.072 259.342 411.132C259.864 411.192 260.429 411.112 261.039 410.89ZM269.516 401.646C270.695 401.288 271.687 401.284 272.492 401.633C273.305 401.969 273.875 402.588 274.204 403.492C274.433 404.122 274.486 404.74 274.361 405.345C274.232 405.939 273.92 406.487 273.424 406.989C272.928 407.49 272.25 407.898 271.388 408.212C270.589 408.502 269.787 408.652 268.98 408.66C268.181 408.653 267.487 408.513 266.899 408.239L267.124 407.14C267.63 407.384 268.231 407.516 268.928 407.536C269.622 407.545 270.316 407.424 271.009 407.171C271.913 406.843 272.541 406.394 272.893 405.825C273.242 405.246 273.29 404.61 273.038 403.916C272.789 403.233 272.347 402.787 271.712 402.578C271.076 402.369 270.259 402.446 269.261 402.81L268.473 403.096L268.169 402.261L269.833 397.318L264.19 399.372L263.822 398.363L270.916 395.781L271.208 396.585L269.516 401.646ZM278.91 397.995C280.507 397.413 281.773 397.28 282.709 397.594C283.651 397.893 284.309 398.558 284.684 399.588C284.917 400.229 284.973 400.857 284.852 401.473C284.742 402.084 284.44 402.646 283.948 403.158C283.453 403.66 282.769 404.069 281.897 404.387C281.108 404.674 280.311 404.821 279.505 404.829C278.705 404.823 278.012 404.682 277.424 404.408L277.649 403.309C278.154 403.553 278.75 403.688 279.437 403.711C280.12 403.724 280.809 403.605 281.502 403.352C282.416 403.02 283.046 402.558 283.391 401.969C283.746 401.375 283.799 400.737 283.551 400.054C283.275 399.298 282.783 398.828 282.074 398.646C281.376 398.46 280.359 398.61 279.024 399.095L276.676 399.95L275.23 394.211L281.267 392.014L281.634 393.022L276.59 394.858L277.491 398.511L278.91 397.995Z" fill="white"/>
</g>
<rect x="1.06192" y="157.239" width="457.037" height="371.779" rx="25.7071" transform="rotate(-20 1.06192 157.239)" stroke="#282E64" stroke-width="0.257631"/>
<defs>
<clipPath id="clip0">
</clipPath>
</defs>
</svg>
